<?xml version="1.0" encoding="utf-8"?>
<!-- Generator: Adobe Illustrator 24.0.1, SVG Export Plug-In . SVG Version: 6.00 Build 0)  -->
<svg version="1.1" id="shema_1" xmlns="http://www.w3.org/2000/svg" xmlns:xlink="http://www.w3.org/1999/xlink" x="0px" y="0px"
	 viewBox="0 0 690 477" style="enable-background:new 0 0 690 477;" xml:space="preserve">
<style type="text/css">
	.st0{fill:#FCFCFC;}
	.st1{fill:#B3D9DB;}
	.st2{fill:#E5E5E5;}
	.st3{fill:#20282C;}
	.st4{fill:#3F8488;}
	.st5{fill:#E25D5D;}
	.st6{fill:#78D3D5;}
	.st7{fill:#FFFFFF;}
	.st8{opacity:0.5;}
	.st9{fill:none;stroke:#E25D5D;stroke-width:1.8;stroke-miterlimit:10;}
	.st10{fill:none;stroke:#E25D5D;stroke-width:1.8;stroke-linecap:round;stroke-miterlimit:10;}
	.st11{clip-path:url(#SVGID_2_);}
	.st12{fill:#FCFCFC;stroke:#E25D5D;stroke-width:1.5;stroke-miterlimit:10;}
	.st13{fill:none;}
</style>
<rect x="0" y="0" class="st0" width="690" height="477"/>
<g>
	<g>
		<rect x="314" y="57.84" class="st1" width="105.69" height="2"/>
		<path class="st1" d="M67.72,116.65l1.66,1.14c17.91-34.4,53.89-57.95,95.28-57.95h11.51v-2h-11.51
			C122.59,57.84,86,81.73,67.72,116.65z"/>
		<path class="st1" d="M55.31,309.81c0,24.16,7.72,47.06,22.33,66.23c14.14,18.55,34.2,32.33,56.48,38.79l0.56-1.92
			c-45.55-13.22-77.37-55.62-77.37-103.1v-58.75l-2-0.1V309.81z"/>
		<path class="st2" d="M57.31,309.81c0,47.48,31.81,89.88,77.37,103.1l-0.56,1.92c-22.28-6.47-42.34-20.24-56.48-38.79
			c-14.61-19.17-22.33-42.07-22.33-66.23v-58.86l-1.2-0.06v58.92c0,24.43,7.81,47.58,22.58,66.96c14.3,18.75,34.57,32.68,57.1,39.22
			l1.15,0.33l0.33-1.15l0.56-1.92l0.33-1.15l-1.15-0.33c-45.04-13.07-76.5-55-76.5-101.95v-58.69l-1.2-0.06V309.81z"/>
		<path class="st2" d="M69.38,117.79l1,0.68c17.68-34.09,53.31-57.43,94.28-57.43h11.51v-1.2h-11.51
			C123.27,59.84,87.28,83.39,69.38,117.79z"/>
		<path class="st2" d="M66.72,115.97l1,0.68C86,81.73,122.59,57.84,164.66,57.84h11.51v-1.2h-11.51
			C122.18,56.64,85.22,80.73,66.72,115.97z"/>
		<polygon class="st2" points="314,61.04 419.69,61.04 419.69,60.44 419.69,59.84 314,59.84 		"/>
		<polygon class="st2" points="314,56.64 314,57.84 419.69,57.84 419.69,57.24 419.69,56.64 		"/>
	</g>
	<g>
		<path class="st1" d="M619.9,116.43l1.87-0.74c-16.45-30.68-47.11-52.64-83.12-57.04v2.01C573.83,65.04,603.77,86.49,619.9,116.43z
			"/>
		<path class="st2" d="M538.66,60.67v0.6v0.6c34.66,4.36,64.18,25.5,80.12,55l1.12-0.45C603.77,86.49,573.83,65.04,538.66,60.67z"/>
		<path class="st2" d="M621.77,115.69l1.12-0.45c-16.64-31.12-47.72-53.39-84.24-57.8v0.6v0.6
			C574.67,63.05,605.33,85.01,621.77,115.69z"/>
	</g>
	<g>
		<path class="st1" d="M587.83,288.04l1.45,1.41c15.63-11.3,28.16-26.63,36.07-44.45l-1.88-0.68
			C615.65,261.87,603.26,276.95,587.83,288.04z"/>
		<path class="st2" d="M623.46,244.32l-1.13-0.41c-7.76,17.38-20.05,32.32-35.37,43.28l0.87,0.85
			C603.26,276.95,615.65,261.87,623.46,244.32z"/>
		<path class="st2" d="M626.48,245.41l-1.13-0.41c-7.91,17.82-20.44,33.14-36.07,44.45l0.87,0.85
			C605.89,278.87,618.52,263.4,626.48,245.41z"/>
	</g>
	<g>
		<polygon class="st1" points="388.86,310.16 462.85,310.16 462.8,308.16 388.86,308.16 		"/>
		<polygon class="st2" points="462.8,308.16 462.76,306.96 388.86,306.96 388.86,308.16 		"/>
		<polygon class="st2" points="388.86,311.36 462.88,311.36 462.85,310.16 388.86,310.16 		"/>
	</g>
	<g>
		<rect x="229.66" y="308.16" class="st1" width="98.51" height="2"/>
		<polygon class="st2" points="229.66,310.16 229.66,308.16 328.17,308.16 328.17,306.96 229.66,306.96 228.46,306.96 
			228.46,308.16 228.46,310.16 228.46,311.36 229.66,311.36 328.17,311.36 328.17,310.16 		"/>
	</g>
</g>
<g>
	<path class="st1" d="M285.51,179.53h295.11l0.06-2H285.51c-47.1,0-87.34,29.93-102.69,71.77l1.87,0.7
		C199.77,208.92,239.27,179.53,285.51,179.53z"/>
	<path class="st2" d="M580.69,176.33H285.51c-47.61,0-88.29,30.26-103.82,72.55l1.12,0.42c15.36-41.84,55.59-71.77,102.69-71.77
		h295.17l-0.06,2H285.51c-46.24,0-85.75,29.39-100.82,70.47l1.12,0.42c14.9-40.63,53.97-69.7,99.7-69.7h295.11h1.17l0.03-1.17
		l0.06-2l0.04-1.23H580.69z"/>
</g>
<g>
	<path class="st3" d="M29.57,47.46v-11.5h3.76c1.25,0,2.19,0.26,2.81,0.77c0.63,0.52,0.94,1.28,0.94,2.29
		c0,0.54-0.15,1.01-0.46,1.42c-0.31,0.41-0.72,0.73-1.25,0.96c0.62,0.17,1.11,0.5,1.47,0.99c0.36,0.49,0.54,1.07,0.54,1.74
		c0,1.03-0.33,1.84-1,2.43s-1.61,0.88-2.83,0.88H29.57z M31.09,40.87h2.29c0.66,0,1.19-0.17,1.59-0.5c0.4-0.33,0.6-0.78,0.6-1.35
		c0-0.63-0.18-1.09-0.55-1.38c-0.37-0.29-0.93-0.43-1.68-0.43h-2.24V40.87z M31.09,42.08v4.14h2.5c0.71,0,1.26-0.18,1.67-0.55
		c0.41-0.37,0.61-0.87,0.61-1.51c0-1.38-0.75-2.08-2.26-2.08H31.09z"/>
	<path class="st3" d="M47.73,35.96v7.82c-0.01,1.08-0.35,1.97-1.02,2.66c-0.68,0.69-1.59,1.08-2.75,1.16l-0.4,0.02
		c-1.26,0-2.26-0.34-3.01-1.02c-0.75-0.68-1.13-1.61-1.14-2.8v-7.83h1.5v7.78c0,0.83,0.23,1.48,0.69,1.94s1.11,0.69,1.96,0.69
		c0.86,0,1.51-0.23,1.97-0.69s0.68-1.1,0.68-1.93v-7.79H47.73z"/>
	<path class="st3" d="M53.63,41.74l3-5.77h1.72l-3.96,7.21v4.29h-1.52v-4.29l-3.96-7.21h1.74L53.63,41.74z"/>
	<path class="st3" d="M65.79,35.96l3.76,9.38l3.76-9.38h1.97v11.5h-1.52v-4.48l0.14-4.83l-3.77,9.31h-1.16l-3.77-9.29l0.15,4.81
		v4.48h-1.52v-11.5H65.79z"/>
	<path class="st3" d="M84.45,42.15h-4.98v4.07h5.79v1.24h-7.3v-11.5h7.22v1.24h-5.71v3.7h4.98V42.15z"/>
	<path class="st3" d="M93.64,42.15h-4.98v4.07h5.79v1.24h-7.3v-11.5h7.22v1.24h-5.71v3.7h4.98V42.15z"/>
	<path class="st3" d="M96.33,47.46v-11.5h3.24c1,0,1.88,0.22,2.65,0.66c0.77,0.44,1.36,1.07,1.78,1.89s0.63,1.75,0.64,2.81v0.73
		c0,1.08-0.21,2.03-0.63,2.85s-1.02,1.44-1.79,1.88c-0.78,0.44-1.68,0.66-2.71,0.67H96.33z M97.85,37.2v9.02h1.6
		c1.17,0,2.08-0.36,2.73-1.09s0.98-1.76,0.98-3.11v-0.67c0-1.31-0.31-2.32-0.92-3.05c-0.61-0.72-1.48-1.09-2.61-1.1H97.85z"/>
	<path class="st3" d="M30.96,63.24l0.22,1.52l0.32-1.37l2.27-8.02h1.28l2.22,8.02l0.32,1.39l0.25-1.55l1.78-7.86h1.52l-2.79,11.5
		h-1.38l-2.37-8.38l-0.18-0.88l-0.18,0.88l-2.46,8.38h-1.38l-2.78-11.5h1.52L30.96,63.24z"/>
	<path class="st3" d="M44.45,66.86h-1.52v-11.5h1.52V66.86z"/>
	<path class="st3" d="M54.94,56.61h-3.69v10.26h-1.51V56.61h-3.69v-1.24h8.89V56.61z"/>
	<path class="st3" d="M65.48,66.86h-1.52v-5.31h-5.8v5.31h-1.52v-11.5h1.52v4.94h5.8v-4.94h1.52V66.86z"/>
	<path class="st3" d="M81.01,66.86h-1.52v-5.31h-5.8v5.31h-1.52v-11.5h1.52v4.94h5.8v-4.94h1.52V66.86z"/>
	<path class="st3" d="M90.19,63.85h-4.82l-1.08,3.01h-1.56l4.39-11.5h1.33l4.4,11.5h-1.56L90.19,63.85z M85.83,62.62h3.91
		l-1.96-5.38L85.83,62.62z"/>
	<path class="st3" d="M95.92,65.62h5.45v1.24h-6.97v-11.5h1.52V65.62z"/>
	<path class="st3" d="M109.43,61.79h-4.82v5.08h-1.52v-11.5h7.12v1.24h-5.61v3.94h4.82V61.79z"/>
</g>
<g>
	<path class="st3" d="M251.21,325.73h-2.7v4.65h-1.52v-11.5h3.81c1.29,0,2.29,0.29,2.99,0.88s1.05,1.45,1.05,2.57
		c0,0.72-0.19,1.34-0.58,1.87c-0.39,0.53-0.92,0.93-1.61,1.19l2.7,4.88v0.09h-1.63L251.21,325.73z M248.51,324.5h2.33
		c0.75,0,1.35-0.2,1.8-0.59c0.44-0.39,0.67-0.91,0.67-1.57c0-0.71-0.21-1.26-0.64-1.64s-1.04-0.57-1.83-0.58h-2.32V324.5z"/>
	<path class="st3" d="M263.45,325.07h-4.98v4.07h5.79v1.24h-7.3v-11.5h7.22v1.24h-5.71v3.7h4.98V325.07z"/>
	<path class="st3" d="M266.14,330.38v-11.5h3.25c1,0,1.88,0.22,2.65,0.66c0.77,0.44,1.36,1.07,1.78,1.89
		c0.42,0.82,0.63,1.75,0.64,2.81v0.73c0,1.08-0.21,2.03-0.63,2.85c-0.42,0.82-1.02,1.44-1.79,1.88c-0.78,0.44-1.68,0.66-2.71,0.67
		H266.14z M267.66,320.13v9.02h1.59c1.17,0,2.08-0.36,2.73-1.09c0.65-0.73,0.98-1.76,0.98-3.11v-0.67c0-1.31-0.31-2.32-0.92-3.05
		c-0.61-0.72-1.48-1.09-2.61-1.1H267.66z"/>
	<path class="st3" d="M283.24,325.07h-4.98v4.07h5.79v1.24h-7.3v-11.5h7.22v1.24h-5.71v3.7h4.98V325.07z"/>
	<path class="st3" d="M292.43,325.07h-4.98v4.07h5.79v1.24h-7.3v-11.5h7.22v1.24h-5.71v3.7h4.98V325.07z"/>
	<path class="st3" d="M297.08,318.89l3.76,9.38l3.76-9.38h1.97v11.5h-1.52v-4.48l0.14-4.83l-3.77,9.31h-1.16l-3.77-9.29l0.15,4.81
		v4.48h-1.52v-11.5H297.08z"/>
</g>
<g>
	<path class="st3" d="M360.35,186.37v7.82c0,1.08-0.35,1.97-1.02,2.66c-0.68,0.69-1.59,1.08-2.75,1.16l-0.4,0.02
		c-1.26,0-2.26-0.34-3.01-1.02c-0.75-0.68-1.13-1.61-1.14-2.8v-7.83h1.5v7.79c0,0.83,0.23,1.48,0.69,1.94s1.11,0.69,1.96,0.69
		c0.86,0,1.51-0.23,1.97-0.69c0.46-0.46,0.68-1.1,0.68-1.93v-7.79H360.35z"/>
	<path class="st3" d="M366.13,192.75c-1.3-0.37-2.25-0.83-2.84-1.38c-0.59-0.54-0.89-1.22-0.89-2.02c0-0.91,0.36-1.65,1.08-2.25
		c0.72-0.59,1.67-0.89,2.82-0.89c0.79,0,1.49,0.15,2.11,0.46c0.62,0.3,1.1,0.73,1.44,1.26c0.34,0.54,0.51,1.12,0.51,1.76h-1.52
		c0-0.7-0.22-1.25-0.66-1.64c-0.44-0.4-1.07-0.6-1.87-0.6c-0.75,0-1.33,0.17-1.75,0.49c-0.42,0.33-0.63,0.79-0.63,1.37
		c0,0.47,0.2,0.87,0.6,1.19c0.4,0.32,1.07,0.62,2.03,0.89c0.96,0.27,1.7,0.57,2.24,0.89c0.54,0.32,0.94,0.7,1.2,1.13
		c0.26,0.43,0.39,0.94,0.39,1.52c0,0.93-0.36,1.68-1.09,2.24s-1.7,0.84-2.91,0.84c-0.79,0-1.53-0.15-2.21-0.45
		c-0.68-0.3-1.21-0.72-1.58-1.24c-0.37-0.53-0.56-1.12-0.56-1.79h1.52c0,0.7,0.26,1.24,0.77,1.65c0.51,0.4,1.2,0.6,2.06,0.6
		c0.8,0,1.41-0.16,1.84-0.49c0.43-0.33,0.64-0.77,0.64-1.33s-0.2-1-0.59-1.31C367.88,193.35,367.16,193.05,366.13,192.75z"/>
	<path class="st3" d="M378.83,192.56h-4.98v4.07h5.79v1.24h-7.3v-11.5h7.22v1.24h-5.71v3.7h4.98V192.56z"/>
	<path class="st3" d="M394.37,192.49c0,1.13-0.19,2.11-0.57,2.95s-0.92,1.48-1.61,1.92c-0.7,0.44-1.51,0.66-2.43,0.66
		c-0.91,0-1.71-0.22-2.41-0.67c-0.7-0.45-1.24-1.08-1.63-1.9c-0.39-0.82-0.58-1.78-0.6-2.86v-0.83c0-1.1,0.19-2.08,0.58-2.93
		c0.38-0.85,0.93-1.5,1.63-1.95c0.7-0.45,1.51-0.67,2.41-0.67c0.92,0,1.73,0.22,2.44,0.67c0.7,0.44,1.24,1.09,1.62,1.93
		s0.57,1.83,0.57,2.95V192.49z M392.86,191.75c0-1.36-0.27-2.41-0.82-3.14c-0.55-0.73-1.31-1.09-2.3-1.09
		c-0.96,0-1.71,0.36-2.26,1.09c-0.55,0.73-0.83,1.74-0.85,3.04v0.84c0,1.32,0.28,2.36,0.83,3.12c0.56,0.75,1.32,1.13,2.29,1.13
		c0.98,0,1.74-0.36,2.27-1.07c0.54-0.71,0.81-1.74,0.83-3.07V191.75z"/>
	<path class="st3" d="M400.86,193.22h-2.7v4.65h-1.52v-11.5h3.81c1.29,0,2.29,0.29,2.99,0.88s1.05,1.45,1.05,2.57
		c0,0.72-0.19,1.34-0.58,1.87c-0.39,0.53-0.92,0.93-1.61,1.19l2.7,4.88v0.09h-1.63L400.86,193.22z M398.16,191.98h2.33
		c0.75,0,1.35-0.2,1.8-0.59c0.44-0.39,0.67-0.91,0.67-1.57c0-0.71-0.21-1.26-0.64-1.64s-1.04-0.57-1.83-0.58h-2.32V191.98z"/>
	<path class="st3" d="M414.82,193.22h-2.7v4.65h-1.52v-11.5h3.81c1.29,0,2.29,0.29,2.99,0.88s1.05,1.45,1.05,2.57
		c0,0.72-0.19,1.34-0.58,1.87c-0.39,0.53-0.92,0.93-1.61,1.19l2.7,4.88v0.09h-1.63L414.82,193.22z M412.12,191.98h2.33
		c0.75,0,1.35-0.2,1.8-0.59c0.44-0.39,0.67-0.91,0.67-1.57c0-0.71-0.21-1.26-0.64-1.64s-1.04-0.57-1.83-0.58h-2.32V191.98z"/>
	<path class="st3" d="M427.05,192.56h-4.98v4.07h5.79v1.24h-7.3v-11.5h7.22v1.24h-5.71v3.7h4.98V192.56z"/>
	<path class="st3" d="M438.58,197.87h-1.52l-5.79-8.86v8.86h-1.52v-11.5h1.52l5.8,8.9v-8.9h1.51V197.87z"/>
	<path class="st3" d="M448.99,187.61h-3.7v10.26h-1.51v-10.26h-3.69v-1.24h8.89V187.61z"/>
</g>
<g>
	<g>
		<path class="st4" d="M613,215.09l3.83,9.55l3.83-9.55h2v11.7h-1.54v-4.56l0.14-4.92l-3.84,9.47h-1.18l-3.83-9.45l0.15,4.89v4.56
			H611v-11.7H613z"/>
		<path class="st4" d="M631.99,221.38h-5.07v4.15h5.89v1.26h-7.43v-11.7h7.35v1.26h-5.81v3.77h5.07V221.38z"/>
		<path class="st4" d="M641.34,221.38h-5.07v4.15h5.89v1.26h-7.43v-11.7h7.35v1.26h-5.81v3.77h5.07V221.38z"/>
		<path class="st4" d="M644.08,226.79v-11.7h3.3c1.02,0,1.92,0.23,2.7,0.68c0.78,0.45,1.39,1.09,1.81,1.92s0.64,1.78,0.65,2.86v0.75
			c0,1.1-0.21,2.07-0.64,2.9s-1.03,1.47-1.82,1.91s-1.71,0.67-2.76,0.68H644.08z M645.63,216.35v9.18h1.62
			c1.19,0,2.12-0.37,2.78-1.11c0.66-0.74,0.99-1.79,0.99-3.16v-0.68c0-1.33-0.31-2.36-0.94-3.1s-1.51-1.11-2.66-1.12H645.63z"/>
	</g>
	<g>
		<g>
			<path class="st5" d="M663.37,149.41c-3.07-5.34-7.61-9.88-12.82-13.09l-1.07,1.87c2.27,1.34,4.27,2.94,6.14,4.68l-4.27,4.14
				c-4.94-4.68-11.49-7.61-18.7-7.88v-6.01c4.81,0.13,9.48,1.2,13.76,3.34l0.94-2c-4.94-2.27-10.29-3.47-15.76-3.47
				c-9.75,0-19.1,3.87-25.91,10.82c-6.95,6.81-10.82,16.16-10.82,25.91c0,9.75,3.87,19.1,10.82,25.91
				c6.95,6.95,16.16,10.82,25.91,10.82s19.1-3.87,25.91-10.82c6.95-6.95,10.82-16.16,10.82-25.91
				C668.32,161.3,666.58,154.89,663.37,149.41z M657.1,144.33c5.61,6.01,8.82,13.89,9.08,22.31h-5.88
				c-0.27-6.95-2.94-13.22-7.35-18.17L657.1,144.33z M630.51,133.11v5.88c-7.08,0.27-13.49,3.07-18.43,7.61l-4.14-4.14
				C613.82,136.99,621.83,133.38,630.51,133.11z M606.34,144.07l4.14,4.14c-4.41,4.94-7.35,11.35-7.61,18.43h-5.88
				C597.25,157.96,600.86,149.94,606.34,144.07z M596.99,168.78h5.88c0.27,7.21,3.21,13.76,7.88,18.7l-4.14,4.14
				C600.99,185.74,597.25,177.59,596.99,168.78z M630.51,202.31c-8.55-0.27-16.43-3.61-22.31-9.08l4.14-4.14
				c4.81,4.41,11.22,7.08,18.17,7.35V202.31z M605,167.71c0-14.56,11.89-26.58,26.58-26.58s26.58,11.89,26.58,26.58
				c0,14.56-11.89,26.58-26.58,26.58S605,182.27,605,167.71z M632.65,202.31v-5.88c7.08-0.27,13.49-3.07,18.43-7.61l4.14,4.14
				C649.35,198.43,641.33,202.04,632.65,202.31z M656.83,191.35l-4.14-4.14c4.54-4.81,7.35-11.35,7.61-18.43h5.88
				C665.91,177.46,662.3,185.48,656.83,191.35z"/>
			<path class="st5" d="M631.57,149.4c-10.1,0-18.31,8.21-18.31,18.31c0,4.63,1.7,8.98,4.81,12.31l0.78-0.72
				c-2.86-3.11-4.42-7.2-4.42-11.59c0-9.45,7.69-17.15,17.15-17.15s17.15,7.69,17.15,17.15c0,9.45-7.69,17.15-17.15,17.15
				c-3.26,0-6.44-0.93-9.24-2.69l-0.56,0.81c3.03,1.92,6.38,2.9,9.95,2.9c10.1,0,18.31-8.21,18.31-18.31
				C649.89,157.56,641.61,149.4,631.57,149.4z"/>
			<rect x="630.38" y="144.73" class="st5" width="2.27" height="2.14"/>
			<rect x="630.38" y="188.41" class="st5" width="2.27" height="2.14"/>
			<rect x="608.61" y="166.64" class="st5" width="2.27" height="2.14"/>
			<rect x="614.35" y="150.48" class="st5" width="2.27" height="2.14"/>
			<rect x="647.74" y="151.68" class="st5" width="2.27" height="2.14"/>
			<rect x="647.74" y="181.6" class="st5" width="2.27" height="2.14"/>
			<rect x="613.15" y="181.6" class="st5" width="2.27" height="2.14"/>
			<rect x="652.29" y="166.64" class="st5" width="2.27" height="2.14"/>
			<path class="st5" d="M631.58,178L631.58,178L631.58,178z"/>
		</g>
		<g>
			<g>
				<g>
					<polygon class="st5" points="635.48,157.39 631.58,169.05 627.58,157.38 623.71,157.38 623.77,173.29 626.81,173.29 
						626.76,162.39 630.51,173.3 632.69,173.3 635.68,164.33 635.75,179.51 639.45,179.51 639.35,157.39 					"/>
				</g>
			</g>
		</g>
	</g>
</g>
<g>
	<g>
		<g>
			<g>
				<path class="st5" d="M550.86,271.13c-1.84-3.2-4.57-5.93-7.69-7.85l-0.64,1.12c1.36,0.8,2.56,1.76,3.68,2.8l-2.56,2.48
					c-2.96-2.8-6.89-4.57-11.21-4.73v-3.6c2.88,0.08,5.69,0.72,8.25,2l0.56-1.2c-2.96-1.36-6.17-2.08-9.45-2.08
					c-5.85,0-11.45,2.32-15.54,6.49c-4.17,4.09-6.49,9.69-6.49,15.54s2.32,11.45,6.49,15.54c4.17,4.17,9.69,6.49,15.54,6.49
					c5.85,0,11.45-2.32,15.54-6.49c4.17-4.17,6.49-9.69,6.49-15.54C553.82,278.26,552.78,274.41,550.86,271.13z M547.09,268.08
					c3.36,3.6,5.29,8.33,5.45,13.38h-3.52c-0.16-4.17-1.76-7.93-4.41-10.89L547.09,268.08z M531.15,261.35v3.52
					c-4.25,0.16-8.09,1.84-11.05,4.57l-2.48-2.48C521.14,263.68,525.95,261.51,531.15,261.35z M516.66,267.92l2.48,2.48
					c-2.64,2.96-4.41,6.81-4.57,11.05h-3.52C511.21,276.25,513.37,271.45,516.66,267.92z M511.05,282.74h3.52
					c0.16,4.33,1.92,8.25,4.73,11.21l-2.48,2.48C513.45,292.92,511.21,288.03,511.05,282.74z M531.15,302.85
					c-5.13-0.16-9.85-2.16-13.38-5.45l2.48-2.48c2.88,2.64,6.73,4.25,10.89,4.41V302.85z M515.85,282.1
					c0-8.73,7.13-15.94,15.94-15.94c8.81,0,15.94,7.13,15.94,15.94c0,8.73-7.13,15.94-15.94,15.94
					C522.98,298.04,515.85,290.83,515.85,282.1z M532.44,302.85v-3.52c4.25-0.16,8.09-1.84,11.05-4.57l2.48,2.48
					C542.45,300.53,537.64,302.69,532.44,302.85z M546.93,296.28l-2.48-2.48c2.72-2.88,4.41-6.81,4.57-11.05h3.52
					C552.38,287.95,550.22,292.76,546.93,296.28z"/>
				<path class="st5" d="M531.79,271.12c-6.06,0-10.98,4.93-10.98,10.98c0,2.78,1.02,5.38,2.88,7.38l0.47-0.43
					c-1.71-1.86-2.65-4.32-2.65-6.95c0-5.67,4.61-10.28,10.28-10.28s10.28,4.61,10.28,10.28c0,5.67-4.61,10.28-10.28,10.28
					c-1.96,0-3.86-0.56-5.54-1.62l-0.34,0.49c1.82,1.15,3.82,1.74,5.97,1.74c6.06,0,10.98-4.93,10.98-10.98
					C542.77,276.01,537.81,271.12,531.79,271.12z"/>
				<rect x="531.07" y="268.32" class="st5" width="1.36" height="1.28"/>
				<rect x="531.07" y="294.52" class="st5" width="1.36" height="1.28"/>
				<rect x="518.02" y="281.46" class="st5" width="1.36" height="1.28"/>
				<rect x="521.46" y="271.77" class="st5" width="1.36" height="1.28"/>
				<rect x="541.49" y="272.49" class="st5" width="1.36" height="1.28"/>
				<rect x="541.49" y="290.43" class="st5" width="1.36" height="1.28"/>
				<rect x="520.74" y="290.43" class="st5" width="1.36" height="1.28"/>
				<rect x="544.21" y="281.46" class="st5" width="1.36" height="1.28"/>
				<path class="st5" d="M531.79,288.27L531.79,288.27L531.79,288.27z"/>
			</g>
			<g>
				<g>
					<g>
						<polygon class="st5" points="534.13,275.91 531.79,282.91 529.39,275.91 527.08,275.91 527.11,285.45 528.93,285.45 
							528.9,278.91 531.15,285.45 532.46,285.45 534.25,280.08 534.3,289.18 536.51,289.18 536.45,275.91 						"/>
					</g>
				</g>
			</g>
		</g>
		<g>
			<g>
				<path class="st5" d="M585.83,303.27c-1.84-3.2-4.57-5.93-7.69-7.85l-0.64,1.12c1.36,0.8,2.56,1.76,3.68,2.8l-2.56,2.48
					c-2.96-2.8-6.89-4.57-11.21-4.73v-3.6c2.88,0.08,5.69,0.72,8.25,2l0.56-1.2c-2.96-1.36-6.17-2.08-9.45-2.08
					c-5.85,0-11.45,2.32-15.54,6.49c-4.17,4.09-6.49,9.69-6.49,15.54c0,5.85,2.32,11.45,6.49,15.54c4.17,4.17,9.69,6.49,15.54,6.49
					s11.45-2.32,15.54-6.49c4.17-4.17,6.49-9.69,6.49-15.54C588.79,310.4,587.75,306.55,585.83,303.27z M582.07,300.23
					c3.36,3.6,5.29,8.33,5.45,13.38h-3.52c-0.16-4.17-1.76-7.93-4.41-10.89L582.07,300.23z M566.13,293.5v3.52
					c-4.25,0.16-8.09,1.84-11.05,4.57l-2.48-2.48C556.11,295.82,560.92,293.66,566.13,293.5z M551.63,300.07l2.48,2.48
					c-2.64,2.96-4.41,6.81-4.57,11.05h-3.52C546.18,308.4,548.34,303.59,551.63,300.07z M546.02,314.89h3.52
					c0.16,4.33,1.92,8.25,4.73,11.21l-2.48,2.48C548.42,325.06,546.18,320.17,546.02,314.89z M566.13,334.99
					c-5.13-0.16-9.85-2.16-13.38-5.45l2.48-2.48c2.88,2.64,6.73,4.25,10.89,4.41V334.99z M550.83,314.24
					c0-8.73,7.13-15.94,15.94-15.94c8.81,0,15.94,7.13,15.94,15.94c0,8.73-7.13,15.94-15.94,15.94
					C557.95,330.19,550.83,322.98,550.83,314.24z M567.41,334.99v-3.52c4.25-0.16,8.09-1.84,11.05-4.57l2.48,2.48
					C577.42,332.67,572.61,334.83,567.41,334.99z M581.91,328.42l-2.48-2.48c2.72-2.88,4.41-6.81,4.57-11.05h3.52
					C587.35,320.09,585.19,324.9,581.91,328.42z"/>
				<path class="st5" d="M566.76,303.27c-6.06,0-10.98,4.93-10.98,10.98c0,2.78,1.02,5.38,2.88,7.38l0.47-0.43
					c-1.71-1.86-2.65-4.32-2.65-6.95c0-5.67,4.61-10.28,10.28-10.28s10.28,4.61,10.28,10.28c0,5.67-4.61,10.28-10.28,10.28
					c-1.96,0-3.86-0.56-5.54-1.62l-0.34,0.49c1.82,1.15,3.82,1.74,5.97,1.74c6.06,0,10.98-4.93,10.98-10.98
					C577.75,308.16,572.78,303.27,566.76,303.27z"/>
				<rect x="566.05" y="300.47" class="st5" width="1.36" height="1.28"/>
				<rect x="566.05" y="326.66" class="st5" width="1.36" height="1.28"/>
				<rect x="552.99" y="313.6" class="st5" width="1.36" height="1.28"/>
				<rect x="556.43" y="303.91" class="st5" width="1.36" height="1.28"/>
				<rect x="576.46" y="304.63" class="st5" width="1.36" height="1.28"/>
				<rect x="576.46" y="322.58" class="st5" width="1.36" height="1.28"/>
				<rect x="555.71" y="322.58" class="st5" width="1.36" height="1.28"/>
				<rect x="579.18" y="313.6" class="st5" width="1.36" height="1.28"/>
				<path class="st5" d="M566.77,320.41L566.77,320.41L566.77,320.41z"/>
			</g>
			<g>
				<g>
					<g>
						<polygon class="st5" points="569.11,308.05 566.77,315.05 564.37,308.05 562.05,308.05 562.08,317.59 563.9,317.59 
							563.87,311.06 566.12,317.59 567.43,317.59 569.22,312.22 569.27,321.32 571.49,321.32 571.42,308.05 						"/>
					</g>
				</g>
			</g>
		</g>
		<g>
			<g>
				<path class="st5" d="M515.89,303.27c-1.84-3.2-4.57-5.93-7.69-7.85l-0.64,1.12c1.36,0.8,2.56,1.76,3.68,2.8l-2.56,2.48
					c-2.96-2.8-6.89-4.57-11.21-4.73v-3.6c2.88,0.08,5.69,0.72,8.25,2l0.56-1.2c-2.96-1.36-6.17-2.08-9.45-2.08
					c-5.85,0-11.45,2.32-15.54,6.49c-4.17,4.09-6.49,9.69-6.49,15.54c0,5.85,2.32,11.45,6.49,15.54c4.17,4.17,9.69,6.49,15.54,6.49
					s11.45-2.32,15.54-6.49c4.17-4.17,6.49-9.69,6.49-15.54C518.85,310.4,517.81,306.55,515.89,303.27z M512.12,300.23
					c3.36,3.6,5.29,8.33,5.45,13.38h-3.52c-0.16-4.17-1.76-7.93-4.41-10.89L512.12,300.23z M496.18,293.5v3.52
					c-4.25,0.16-8.09,1.84-11.05,4.57l-2.48-2.48C486.17,295.82,490.98,293.66,496.18,293.5z M481.68,300.07l2.48,2.48
					c-2.64,2.96-4.41,6.81-4.57,11.05h-3.52C476.24,308.4,478.4,303.59,481.68,300.07z M476.08,314.89h3.52
					c0.16,4.33,1.92,8.25,4.73,11.21l-2.48,2.48C478.48,325.06,476.24,320.17,476.08,314.89z M496.18,334.99
					c-5.13-0.16-9.85-2.16-13.38-5.45l2.48-2.48c2.88,2.64,6.73,4.25,10.89,4.41V334.99z M480.88,314.24
					c0-8.73,7.13-15.94,15.94-15.94s15.94,7.13,15.94,15.94c0,8.73-7.13,15.94-15.94,15.94S480.88,322.98,480.88,314.24z
					 M497.46,334.99v-3.52c4.25-0.16,8.09-1.84,11.05-4.57l2.48,2.48C507.48,332.67,502.67,334.83,497.46,334.99z M511.96,328.42
					l-2.48-2.48c2.72-2.88,4.41-6.81,4.57-11.05h3.52C517.41,320.09,515.25,324.9,511.96,328.42z"/>
				<path class="st5" d="M496.82,303.27c-6.06,0-10.98,4.93-10.98,10.98c0,2.78,1.02,5.38,2.88,7.38l0.47-0.43
					c-1.71-1.86-2.65-4.32-2.65-6.95c0-5.67,4.61-10.28,10.28-10.28s10.28,4.61,10.28,10.28c0,5.67-4.61,10.28-10.28,10.28
					c-1.96,0-3.86-0.56-5.54-1.62l-0.34,0.49c1.82,1.15,3.82,1.74,5.97,1.74c6.06,0,10.98-4.93,10.98-10.98
					C507.8,308.16,502.84,303.27,496.82,303.27z"/>
				<rect x="496.1" y="300.47" class="st5" width="1.36" height="1.28"/>
				<rect x="496.1" y="326.66" class="st5" width="1.36" height="1.28"/>
				<rect x="483.05" y="313.6" class="st5" width="1.36" height="1.28"/>
				<rect x="486.49" y="303.91" class="st5" width="1.36" height="1.28"/>
				<rect x="506.52" y="304.63" class="st5" width="1.36" height="1.28"/>
				<rect x="506.52" y="322.58" class="st5" width="1.36" height="1.28"/>
				<rect x="485.77" y="322.58" class="st5" width="1.36" height="1.28"/>
				<rect x="509.24" y="313.6" class="st5" width="1.36" height="1.28"/>
				<path class="st5" d="M496.82,320.41L496.82,320.41L496.82,320.41z"/>
			</g>
			<g>
				<g>
					<g>
						<polygon class="st5" points="499.16,308.05 496.82,315.05 494.42,308.05 492.1,308.05 492.14,317.59 493.96,317.59 
							493.93,311.06 496.18,317.59 497.49,317.59 499.28,312.22 499.32,321.32 501.54,321.32 501.48,308.05 						"/>
					</g>
				</g>
			</g>
		</g>
	</g>
	<g>
		<path class="st4" d="M509.82,347.96l1.93-3.17h1.74l-2.84,4.3l2.93,4.4h-1.72l-2.01-3.25l-2.01,3.25h-1.73l2.93-4.4l-2.84-4.3
			h1.72L509.82,347.96z"/>
		<path class="st4" d="M517.29,341.78l3.83,9.55l3.83-9.55h2v11.7h-1.54v-4.56l0.14-4.92l-3.84,9.47h-1.18l-3.83-9.45l0.15,4.89
			v4.56h-1.54v-11.7H517.29z"/>
		<path class="st4" d="M536.28,348.07h-5.07v4.15h5.89v1.26h-7.43v-11.7h7.35v1.26h-5.81v3.77h5.07V348.07z"/>
		<path class="st4" d="M545.63,348.07h-5.07v4.15h5.89v1.26h-7.43v-11.7h7.35v1.26h-5.81v3.77h5.07V348.07z"/>
		<path class="st4" d="M548.37,353.48v-11.7h3.3c1.02,0,1.92,0.23,2.7,0.68c0.78,0.45,1.39,1.09,1.81,1.92
			c0.43,0.83,0.64,1.78,0.65,2.86v0.75c0,1.1-0.21,2.07-0.64,2.9c-0.43,0.83-1.03,1.47-1.82,1.91c-0.79,0.45-1.71,0.67-2.76,0.68
			H548.37z M549.92,343.04v9.18h1.62c1.19,0,2.11-0.37,2.78-1.11c0.66-0.74,0.99-1.79,0.99-3.16v-0.68c0-1.33-0.31-2.36-0.94-3.1
			s-1.51-1.11-2.66-1.12H549.92z"/>
	</g>
</g>
<g>
	<g>
		<path class="st5" d="M211.01,320.01c0-1.2-0.27-2.4-0.8-3.47v-47.55c0-4.01-3.21-7.21-7.21-7.21c-0.53,0-1.07,0-1.47,0.13
			l-44.21-0.27l0,0c-3.47,0-6.55,2.27-7.75,5.48l-1.6,4.94c-0.13,0.4,0,0.94,0.4,1.07c0.13,0,0.13,0,0.27,0h6.95v50.76
			c0,0.4,0.4,0.8,0.8,0.8l0,0h40.47c0.53,0.8,1.34,1.47,2.14,1.87v7.35c0,0.4,0.4,0.8,0.8,0.8c0.13,0,0.4-0.13,0.53-0.13l2.81-2.54
			l2.81,2.54c0.13,0.13,0.27,0.13,0.53,0.13c0.4,0,0.8-0.4,0.8-0.8v-7.35C209.68,325.22,211.01,322.68,211.01,320.01z
			 M152.37,267.92c0.94-2.67,3.21-4.41,5.74-4.41l0,0l38.47,0.13c-1.2,1.07-2,2.4-2.27,4.01l-0.94,4.01H151.3L152.37,267.92z
			 M157.58,322.95v-49.56h37.8c0.4,0,0.67-0.27,0.8-0.67l1.07-4.68c0.67-2.67,2.94-4.41,5.61-4.41c3.07,0,5.61,2.54,5.61,5.61V314
			c-3.07-3.07-8.01-2.94-11.09,0.13c-2.27,2.27-2.81,5.74-1.6,8.68L157.58,322.95L157.58,322.95z M205.4,331.9l-1.87-1.74
			c-0.27-0.27-0.8-0.27-1.07,0l-1.87,1.74v-4.54c1.47,0.53,3.34,0.53,4.81,0V331.9z M203,326.02c-3.34,0-6.14-2.81-6.14-6.14
			c0-3.34,2.81-6.14,6.14-6.14s6.14,2.81,6.14,6.14C209.14,323.22,206.34,326.02,203,326.02L203,326.02z"/>
		<path class="st5" d="M203,315.34c-2.54,0-4.41,2-4.41,4.41c0,2.54,2,4.41,4.41,4.41c2.54,0,4.41-2,4.41-4.41l0,0
			C207.54,317.34,205.53,315.34,203,315.34z M203,322.68c-1.47,0-2.94-1.2-2.94-2.94c0-1.47,1.2-2.94,2.94-2.94
			c1.47,0,2.94,1.2,2.94,2.94C205.94,321.48,204.6,322.68,203,322.68z"/>
		<path class="st5" d="M171.61,302.38h20.57c0.4,0,0.8-0.4,0.8-0.8l0,0v-14.43c0-0.27-0.13-0.53-0.27-0.67l-10.29-7.35
			c-0.27-0.13-0.67-0.13-0.94,0l-10.29,7.35c-0.27,0.13-0.27,0.4-0.27,0.67v14.43C170.8,301.98,171.2,302.38,171.61,302.38z
			 M178.82,300.64v-7.35c0-1.74,1.34-3.07,3.07-3.07s3.07,1.34,3.07,3.07v7.35H178.82z M172.41,287.55l9.48-6.81l9.48,6.81v13.09
			h-4.68v-7.35c0-2.54-2.14-4.68-4.68-4.68s-4.68,2.14-4.68,4.68l0,0v7.35h-4.68L172.41,287.55z"/>
		<path class="st5" d="M163.59,310.13h36.6c0.4,0,0.8-0.53,0.8-0.94s-0.4-0.94-0.8-0.94h-36.6c-0.4,0-0.8,0.53-0.8,0.94
			S163.19,310.13,163.59,310.13z"/>
		<path class="st5" d="M180.82,314.67h-17.37c-0.4,0-0.8,0.53-0.8,1.07c0,0.53,0.4,1.07,0.8,1.07h17.5c0.4,0,0.8-0.53,0.8-1.07
			C181.76,315.2,181.36,314.67,180.82,314.67z"/>
	</g>
	<g>
		<path class="st4" d="M154.02,350.48v-11.7h3.3c1.02,0,1.92,0.22,2.7,0.67c0.78,0.45,1.39,1.09,1.81,1.92
			c0.43,0.83,0.64,1.78,0.65,2.86v0.75c0,1.1-0.21,2.07-0.64,2.9c-0.43,0.83-1.03,1.47-1.82,1.91c-0.79,0.44-1.71,0.67-2.76,0.68
			H154.02z M155.56,340.04v9.18h1.62c1.19,0,2.11-0.37,2.78-1.11c0.66-0.74,0.99-1.79,0.99-3.16v-0.68c0-1.33-0.31-2.36-0.94-3.1
			s-1.51-1.11-2.66-1.12H155.56z"/>
		<path class="st4" d="M171.42,345.07h-5.07v4.15h5.89v1.26h-7.43v-11.7h7.35v1.26h-5.81v3.77h5.07V345.07z"/>
		<path class="st4" d="M180.78,345.07h-5.07v4.15h5.89v1.26h-7.43v-11.7h7.35v1.26h-5.81v3.77h5.07V345.07z"/>
		<path class="st4" d="M183.52,350.48v-11.7h3.3c1.02,0,1.92,0.22,2.7,0.67c0.78,0.45,1.39,1.09,1.81,1.92
			c0.43,0.83,0.64,1.78,0.65,2.86v0.75c0,1.1-0.21,2.07-0.64,2.9c-0.43,0.83-1.03,1.47-1.82,1.91c-0.79,0.44-1.71,0.67-2.76,0.68
			H183.52z M185.06,340.04v9.18h1.62c1.19,0,2.11-0.37,2.78-1.11c0.66-0.74,0.99-1.79,0.99-3.16v-0.68c0-1.33-0.31-2.36-0.94-3.1
			s-1.51-1.11-2.66-1.12H185.06z"/>
		<path class="st4" d="M202.88,350.48h-1.49v-9.91l-3,1.1v-1.35l4.26-1.6h0.23V350.48z"/>
	</g>
</g>
<g>
	<g>
		<path class="st5" d="M211.01,426.94c0-1.2-0.27-2.4-0.8-3.47v-47.55c0-4.01-3.21-7.21-7.21-7.21c-0.53,0-1.07,0-1.47,0.13
			l-44.21-0.27l0,0c-3.47,0-6.55,2.27-7.75,5.48l-1.6,4.94c-0.13,0.4,0,0.94,0.4,1.07c0.13,0,0.13,0,0.27,0h6.95v50.76
			c0,0.4,0.4,0.8,0.8,0.8l0,0h40.47c0.53,0.8,1.34,1.47,2.14,1.87v7.35c0,0.4,0.4,0.8,0.8,0.8c0.13,0,0.4-0.13,0.53-0.13l2.81-2.54
			l2.81,2.54c0.13,0.13,0.27,0.13,0.53,0.13c0.4,0,0.8-0.4,0.8-0.8v-7.35C209.68,432.15,211.01,429.61,211.01,426.94z
			 M152.37,374.84c0.94-2.67,3.21-4.41,5.74-4.41l0,0l38.47,0.13c-1.2,1.07-2,2.4-2.27,4.01l-0.94,4.01H151.3L152.37,374.84z
			 M157.58,429.88v-49.56h37.8c0.4,0,0.67-0.27,0.8-0.67l1.07-4.68c0.67-2.67,2.94-4.41,5.61-4.41c3.07,0,5.61,2.54,5.61,5.61v44.75
			c-3.07-3.07-8.01-2.94-11.09,0.13c-2.27,2.27-2.81,5.74-1.6,8.68L157.58,429.88L157.58,429.88z M205.4,438.83l-1.87-1.74
			c-0.27-0.27-0.8-0.27-1.07,0l-1.87,1.74v-4.54c1.47,0.53,3.34,0.53,4.81,0V438.83z M203,432.95c-3.34,0-6.14-2.81-6.14-6.14
			s2.81-6.14,6.14-6.14c3.34,0,6.14,2.81,6.14,6.14S206.34,432.95,203,432.95L203,432.95z"/>
		<path class="st5" d="M203,422.26c-2.54,0-4.41,2-4.41,4.41c0,2.54,2,4.41,4.41,4.41c2.54,0,4.41-2,4.41-4.41l0,0
			C207.54,424.27,205.53,422.26,203,422.26z M203,429.61c-1.47,0-2.94-1.2-2.94-2.94c0-1.47,1.2-2.94,2.94-2.94
			c1.47,0,2.94,1.2,2.94,2.94C205.94,428.41,204.6,429.61,203,429.61z"/>
		<path class="st5" d="M171.61,409.31h20.57c0.4,0,0.8-0.4,0.8-0.8l0,0v-14.43c0-0.27-0.13-0.53-0.27-0.67l-10.29-7.35
			c-0.27-0.13-0.67-0.13-0.94,0l-10.29,7.35c-0.27,0.13-0.27,0.4-0.27,0.67v14.43C170.8,408.91,171.2,409.31,171.61,409.31z
			 M178.82,407.57v-7.35c0-1.74,1.34-3.07,3.07-3.07c1.74,0,3.07,1.34,3.07,3.07v7.35H178.82z M172.41,394.48l9.48-6.81l9.48,6.81
			v13.09h-4.68v-7.35c0-2.54-2.14-4.68-4.68-4.68s-4.68,2.14-4.68,4.68l0,0v7.35h-4.68L172.41,394.48z"/>
		<path class="st5" d="M163.59,417.05h36.6c0.4,0,0.8-0.53,0.8-0.94c0-0.4-0.4-0.94-0.8-0.94h-36.6c-0.4,0-0.8,0.53-0.8,0.94
			C162.79,416.52,163.19,417.05,163.59,417.05z"/>
		<path class="st5" d="M180.82,421.6h-17.37c-0.4,0-0.8,0.53-0.8,1.07c0,0.53,0.4,1.07,0.8,1.07h17.5c0.4,0,0.8-0.53,0.8-1.07
			C181.76,422.13,181.36,421.6,180.82,421.6z"/>
	</g>
	<g>
		<path class="st4" d="M154.02,457.13v-11.7h3.3c1.02,0,1.92,0.22,2.7,0.67c0.78,0.45,1.39,1.09,1.81,1.92
			c0.43,0.83,0.64,1.78,0.65,2.86v0.75c0,1.1-0.21,2.07-0.64,2.9c-0.43,0.83-1.03,1.47-1.82,1.91c-0.79,0.44-1.71,0.67-2.76,0.68
			H154.02z M155.56,446.7v9.18h1.62c1.19,0,2.11-0.37,2.78-1.11c0.66-0.74,0.99-1.79,0.99-3.16v-0.68c0-1.33-0.31-2.36-0.94-3.1
			s-1.51-1.11-2.66-1.12H155.56z"/>
		<path class="st4" d="M171.42,451.73h-5.07v4.15h5.89v1.26h-7.43v-11.7h7.35v1.26h-5.81v3.77h5.07V451.73z"/>
		<path class="st4" d="M180.78,451.73h-5.07v4.15h5.89v1.26h-7.43v-11.7h7.35v1.26h-5.81v3.77h5.07V451.73z"/>
		<path class="st4" d="M183.52,457.13v-11.7h3.3c1.02,0,1.92,0.22,2.7,0.67c0.78,0.45,1.39,1.09,1.81,1.92
			c0.43,0.83,0.64,1.78,0.65,2.86v0.75c0,1.1-0.21,2.07-0.64,2.9c-0.43,0.83-1.03,1.47-1.82,1.91c-0.79,0.44-1.71,0.67-2.76,0.68
			H183.52z M185.06,446.7v9.18h1.62c1.19,0,2.11-0.37,2.78-1.11c0.66-0.74,0.99-1.79,0.99-3.16v-0.68c0-1.33-0.31-2.36-0.94-3.1
			s-1.51-1.11-2.66-1.12H185.06z"/>
		<path class="st4" d="M205.66,457.13H198v-1.07l4.05-4.5c0.6-0.68,1.01-1.23,1.24-1.66s0.34-0.87,0.34-1.32
			c0-0.61-0.19-1.11-0.55-1.5c-0.37-0.39-0.86-0.59-1.48-0.59c-0.74,0-1.31,0.21-1.72,0.63c-0.41,0.42-0.61,1.01-0.61,1.76h-1.49
			c0-1.08,0.35-1.95,1.04-2.61c0.69-0.66,1.62-1,2.78-1c1.09,0,1.95,0.29,2.58,0.86c0.63,0.57,0.95,1.33,0.95,2.28
			c0,1.15-0.73,2.52-2.2,4.12l-3.13,3.4h5.87V457.13z"/>
	</g>
</g>
<g>
	<g>
		<path class="st4" d="M339.15,348.9v4.58h-1.54v-11.7h4.32c1.28,0,2.28,0.33,3.01,0.98c0.73,0.65,1.09,1.52,1.09,2.6
			c0,1.14-0.36,2.01-1.07,2.62s-1.73,0.92-3.05,0.92H339.15z M339.15,347.64h2.77c0.82,0,1.46-0.19,1.9-0.58s0.66-0.95,0.66-1.69
			c0-0.7-0.22-1.26-0.66-1.67s-1.04-0.64-1.81-0.65h-2.86V347.64z"/>
		<path class="st4" d="M347.25,349.05c0-0.85,0.17-1.62,0.5-2.3c0.33-0.68,0.8-1.21,1.4-1.58c0.6-0.37,1.28-0.55,2.04-0.55
			c1.18,0,2.14,0.41,2.87,1.23c0.73,0.82,1.1,1.91,1.1,3.27v0.1c0,0.85-0.16,1.61-0.49,2.28c-0.32,0.67-0.79,1.2-1.39,1.57
			s-1.29,0.56-2.08,0.56c-1.18,0-2.13-0.41-2.87-1.23c-0.73-0.82-1.1-1.91-1.1-3.25V349.05z M348.75,349.23
			c0,0.96,0.22,1.74,0.67,2.32c0.45,0.58,1.05,0.88,1.8,0.88c0.75,0,1.36-0.3,1.8-0.89s0.67-1.42,0.67-2.49
			c0-0.95-0.23-1.73-0.68-2.32c-0.45-0.59-1.05-0.89-1.8-0.89c-0.73,0-1.33,0.29-1.78,0.88S348.75,348.14,348.75,349.23z"/>
		<path class="st4" d="M357.04,342.48c0-0.24,0.07-0.44,0.22-0.61c0.15-0.17,0.37-0.25,0.65-0.25c0.29,0,0.51,0.08,0.66,0.25
			s0.22,0.37,0.22,0.61c0,0.24-0.07,0.44-0.22,0.6c-0.15,0.16-0.37,0.24-0.66,0.24c-0.29,0-0.51-0.08-0.65-0.24
			C357.12,342.92,357.04,342.72,357.04,342.48z M358.65,353.48h-1.49v-8.7h1.49V353.48z"/>
		<path class="st4" d="M362.44,344.78l0.05,1.09c0.66-0.83,1.53-1.25,2.6-1.25c1.84,0,2.76,1.04,2.78,3.11v5.75h-1.49v-5.75
			c-0.01-0.63-0.15-1.09-0.43-1.39c-0.28-0.3-0.72-0.45-1.31-0.45c-0.48,0-0.91,0.13-1.27,0.39c-0.36,0.26-0.65,0.59-0.85,1.01v6.2
			h-1.49v-8.7H362.44z"/>
		<path class="st4" d="M372.13,342.68v2.11h1.62v1.15h-1.62v5.4c0,0.35,0.07,0.61,0.22,0.78c0.14,0.17,0.39,0.26,0.74,0.26
			c0.17,0,0.41-0.03,0.71-0.1v1.2c-0.39,0.11-0.77,0.16-1.14,0.16c-0.66,0-1.17-0.2-1.5-0.6c-0.34-0.4-0.51-0.97-0.51-1.71v-5.39
			h-1.58v-1.15h1.58v-2.11H372.13z"/>
		<path class="st4" d="M380.55,351.17c0-0.4-0.15-0.71-0.45-0.94c-0.3-0.22-0.83-0.41-1.58-0.58c-0.75-0.16-1.35-0.35-1.79-0.58
			c-0.44-0.23-0.77-0.49-0.98-0.8s-0.32-0.68-0.32-1.11c0-0.71,0.3-1.32,0.9-1.81c0.6-0.49,1.37-0.74,2.31-0.74
			c0.99,0,1.79,0.25,2.4,0.76c0.61,0.51,0.92,1.16,0.92,1.95h-1.49c0-0.41-0.17-0.76-0.52-1.05s-0.78-0.44-1.31-0.44
			c-0.54,0-0.96,0.12-1.27,0.35c-0.31,0.24-0.46,0.54-0.46,0.92c0,0.36,0.14,0.63,0.43,0.81c0.28,0.18,0.8,0.36,1.54,0.52
			c0.74,0.17,1.34,0.36,1.8,0.59s0.8,0.51,1.02,0.83c0.22,0.32,0.33,0.72,0.33,1.18c0,0.78-0.31,1.4-0.93,1.87
			c-0.62,0.47-1.43,0.7-2.42,0.7c-0.7,0-1.31-0.12-1.85-0.37c-0.54-0.25-0.96-0.59-1.26-1.03c-0.3-0.44-0.45-0.92-0.45-1.43h1.49
			c0.03,0.5,0.23,0.89,0.6,1.19s0.86,0.44,1.47,0.44c0.56,0,1.01-0.11,1.35-0.34C380.38,351.86,380.55,351.55,380.55,351.17z"/>
	</g>
	<g>
		<path class="st5" d="M374.58,326.96h-1.81c-0.24,0-0.43-0.18-0.46-0.42c-0.41-3.61-3.48-6.42-7.2-6.42h-0.35
			c-0.47-1.28-1-3.4-1-6.4c0-2.7,0.76-4.59,1.51-5.8c0.06-0.09,0.15-0.16,0.25-0.19c4.8-1.49,8.74-4.68,11.25-8.79
			c6.08-5.05,10.36-14.06,11.18-24.29c0.11-1.34-0.32-2.64-1.18-3.57c-0.72-0.78-1.67-1.21-2.68-1.21h-0.99v-5.9
			c0-1.86-1.51-3.37-3.37-3.37h-39.92c-2.12,0-3.84,1.72-3.84,3.84v5.43h-0.99c-1,0-1.95,0.43-2.68,1.21
			c-0.86,0.93-1.29,2.23-1.18,3.57c0.82,10.22,5.1,19.23,11.18,24.28c2.51,4.11,6.46,7.3,11.26,8.79c0.11,0.03,0.2,0.1,0.25,0.19
			c0.75,1.21,1.51,3.1,1.51,5.8c0,3-0.54,5.12-1,6.4h-0.35c-3.72,0-6.79,2.81-7.2,6.42c-0.03,0.24-0.22,0.42-0.46,0.42h-1.81
			c-2.12,0-3.84,1.72-3.84,3.84v1.11c0,2.12,1.72,3.84,3.84,3.84h30.06c2.12,0,3.84-1.72,3.84-3.84v-1.11
			C378.42,328.68,376.7,326.96,374.58,326.96z M384.1,271.97c0.53,0,0.91,0.29,1.14,0.54c0.46,0.49,0.69,1.23,0.63,1.98
			c-0.58,7.35-3.06,14.17-6.8,19.08c0.43-1.64,0.67-3.36,0.67-5.11v-0.51v-15.98H384.1z M333.22,274.49
			c-0.06-0.75,0.18-1.49,0.63-1.98c0.23-0.25,0.61-0.54,1.14-0.54h4.36v15.98v0.51c0,1.76,0.24,3.47,0.67,5.11
			C336.28,288.66,333.81,281.84,333.22,274.49z M340.18,269c-0.39,0.01-0.66,0.02-0.83,0.04v-0.08c-0.85,0-1.54-0.69-1.54-1.54
			v-3.44c0-0.85,0.69-1.54,1.54-1.54h40.85c0.59,0,1.08,0.48,1.08,1.08v3.9c0,0.85-0.69,1.54-1.54,1.54l-20.19,0
			c-1.44,0-2.78,0-4.03,0h-15.33V269z M354.69,306.14c-7.95-2.18-13.51-9.45-13.51-17.69v-18.5h36.72v18.5
			c0,8.24-5.55,15.51-13.51,17.69C361.15,307.03,357.94,307.03,354.69,306.14z M363.12,320.95h-7.14c0.54-1.41,1.19-3.82,1.19-7.24
			c0-2.8-0.73-4.88-1.52-6.32c0.01,0,0.01,0,0.02,0c0.58,0.12,1.16,0.21,1.74,0.27c0.13,0.02,0.26,0.03,0.39,0.04
			c0.59,0.06,1.17,0.09,1.75,0.09c0.58,0,1.16-0.04,1.75-0.09c0.13-0.01,0.26-0.03,0.38-0.04c0.58-0.07,1.16-0.15,1.74-0.27
			c0.01,0,0.02,0,0.02,0c-0.8,1.43-1.52,3.51-1.52,6.32C361.92,317.13,362.58,319.54,363.12,320.95z M348.57,327.36
			c0-2.98,2.43-5.41,5.41-5.41h0.46h10.2h0.46c2.98,0,5.41,2.43,5.41,5.41v0.44h-21.94V327.36z M376.58,332.95
			c0,0.53-0.43,0.96-0.96,0.96h-32.16c-0.53,0-0.96-0.43-0.96-0.96v-3.2c0-0.53,0.43-0.96,0.96-0.96h4.11h23.94h4.11
			c0.53,0,0.96,0.43,0.96,0.96V332.95z"/>
		<path class="st5" d="M363.7,294.46c0.49,0.26,1.07,0.22,1.51-0.11c0.45-0.32,0.67-0.86,0.57-1.4l-0.79-4.63l3.36-3.28
			c0.39-0.38,0.53-0.95,0.36-1.47c-0.17-0.52-0.61-0.9-1.16-0.98l-4.65-0.68l-2.08-4.21c-0.24-0.49-0.73-0.8-1.28-0.8c0,0,0,0,0,0
			c-0.55,0-1.04,0.31-1.29,0.8l-2.08,4.21l-4.65,0.68c-0.54,0.08-0.99,0.45-1.16,0.98c-0.17,0.52-0.03,1.09,0.36,1.47l3.36,3.28
			l-0.79,4.63c-0.09,0.54,0.13,1.08,0.57,1.4c0.25,0.18,0.55,0.28,0.84,0.28c0.23,0,0.46-0.06,0.67-0.17l4.16-2.18L363.7,294.46z
			 M355.08,293.87l-0.45-0.7l0.91-5.32l-3.87-3.77l0.06-0.17l5.34-0.78l2.48-4.9c0.06,0,0.08,0.04,0.09,0.05l2.39,4.84l5.34,0.78
			l0.06,0.17l-3.87,3.77l0.91,5.32l0.66-0.11l-0.8,0.22l-4.78-2.51l-4.78,2.51L355.08,293.87z"/>
	</g>
</g>
<g>
	<path class="st3" d="M624.07,276.71c-1.3-0.37-2.25-0.83-2.84-1.38c-0.59-0.54-0.89-1.22-0.89-2.02c0-0.91,0.36-1.65,1.08-2.25
		c0.72-0.59,1.67-0.89,2.82-0.89c0.79,0,1.49,0.15,2.11,0.46c0.62,0.31,1.1,0.73,1.44,1.26c0.34,0.54,0.51,1.12,0.51,1.76h-1.52
		c0-0.7-0.22-1.25-0.66-1.64s-1.07-0.6-1.87-0.6c-0.75,0-1.33,0.17-1.75,0.5c-0.42,0.33-0.63,0.79-0.63,1.37
		c0,0.47,0.2,0.87,0.6,1.19c0.4,0.32,1.07,0.62,2.03,0.89c0.96,0.27,1.7,0.57,2.24,0.89c0.54,0.32,0.94,0.7,1.2,1.13
		c0.26,0.43,0.39,0.94,0.39,1.52c0,0.93-0.36,1.68-1.09,2.24s-1.7,0.84-2.91,0.84c-0.79,0-1.53-0.15-2.21-0.45
		c-0.68-0.3-1.21-0.72-1.58-1.24s-0.56-1.12-0.56-1.79h1.52c0,0.7,0.26,1.24,0.77,1.65c0.51,0.4,1.2,0.6,2.06,0.6
		c0.8,0,1.41-0.16,1.84-0.49c0.43-0.33,0.64-0.77,0.64-1.33s-0.2-1-0.59-1.31S625.11,277.01,624.07,276.71z"/>
	<path class="st3" d="M638.22,271.58h-3.7v10.26h-1.51v-10.26h-3.69v-1.24h8.89V271.58z"/>
	<path class="st3" d="M645.65,278.83h-4.82l-1.08,3.01h-1.56l4.39-11.5h1.33l4.4,11.5h-1.56L645.65,278.83z M641.29,277.59h3.91
		l-1.96-5.38L641.29,277.59z"/>
	<path class="st3" d="M652.77,276.49l-1.41,1.46v3.88h-1.52v-11.5h1.52v5.68l5.11-5.68h1.83l-4.52,5.08l4.88,6.42h-1.82
		L652.77,276.49z"/>
	<path class="st3" d="M666.49,276.52h-4.98v4.07h5.79v1.24h-7.3v-11.5h7.22v1.24h-5.71v3.7h4.98V276.52z"/>
</g>
<g>
	<g>
		<path class="st3" d="M30.26,365.26c-1.3-0.37-2.25-0.83-2.84-1.38c-0.59-0.54-0.89-1.22-0.89-2.02c0-0.91,0.36-1.65,1.09-2.25
			c0.72-0.59,1.66-0.89,2.82-0.89c0.79,0,1.49,0.15,2.11,0.46c0.62,0.3,1.1,0.73,1.44,1.26c0.34,0.54,0.51,1.12,0.51,1.76h-1.52
			c0-0.7-0.22-1.25-0.66-1.64c-0.44-0.4-1.07-0.6-1.87-0.6c-0.75,0-1.33,0.17-1.75,0.49c-0.42,0.33-0.63,0.79-0.63,1.37
			c0,0.47,0.2,0.87,0.6,1.19s1.07,0.62,2.03,0.89c0.96,0.27,1.7,0.57,2.24,0.89c0.54,0.32,0.94,0.7,1.2,1.13
			c0.26,0.43,0.39,0.94,0.39,1.52c0,0.93-0.36,1.68-1.09,2.24c-0.73,0.56-1.7,0.84-2.91,0.84c-0.79,0-1.53-0.15-2.21-0.45
			c-0.68-0.3-1.21-0.72-1.58-1.24c-0.37-0.53-0.56-1.12-0.56-1.79h1.52c0,0.7,0.26,1.24,0.77,1.65s1.2,0.6,2.06,0.6
			c0.8,0,1.41-0.16,1.84-0.49c0.43-0.33,0.64-0.77,0.64-1.33s-0.2-1-0.59-1.31C32.01,365.87,31.3,365.56,30.26,365.26z"/>
		<path class="st3" d="M42.96,365.07h-4.98v4.07h5.79v1.24h-7.3v-11.5h7.22v1.24h-5.71v3.7h4.98V365.07z"/>
		<path class="st3" d="M47.18,369.15h5.45v1.24h-6.97v-11.5h1.52V369.15z"/>
		<path class="st3" d="M55.88,369.15h5.45v1.24h-6.97v-11.5h1.52V369.15z"/>
	</g>
</g>
<g>
	<path class="st6" d="M136.19,418.74c-1.19,0-2.3-0.46-3.14-1.3c-1.73-1.73-1.73-4.55,0-6.28c0.84-0.84,1.95-1.3,3.14-1.3
		c1.19,0,2.3,0.46,3.14,1.3c1.73,1.73,1.73,4.55,0,6.28C138.48,418.28,137.37,418.74,136.19,418.74z"/>
	<path class="st7" d="M136.18,410.36c1.01,0,2.02,0.38,2.78,1.15c1.54,1.54,1.54,4.03,0,5.57c-0.77,0.77-1.78,1.15-2.78,1.15
		s-2.02-0.38-2.78-1.15c-1.54-1.54-1.54-4.03,0-5.57C134.17,410.75,135.18,410.36,136.18,410.36 M136.18,409.36
		c-1.32,0-2.56,0.51-3.49,1.45c-0.93,0.93-1.45,2.17-1.45,3.49s0.51,2.56,1.45,3.49c0.93,0.93,2.17,1.45,3.49,1.45
		c1.32,0,2.56-0.51,3.49-1.45c0.93-0.93,1.45-2.17,1.45-3.49s-0.51-2.56-1.45-3.49C138.74,409.88,137.5,409.36,136.18,409.36
		L136.18,409.36z"/>
</g>
<g>
	<path class="st6" d="M68.19,120.75c-1.19,0-2.3-0.46-3.14-1.3c-1.73-1.73-1.73-4.55,0-6.28c0.84-0.84,1.95-1.3,3.14-1.3
		c1.19,0,2.3,0.46,3.14,1.3c1.73,1.73,1.73,4.55,0,6.28C70.48,120.29,69.37,120.75,68.19,120.75z"/>
	<path class="st7" d="M68.18,112.38c1.01,0,2.02,0.38,2.78,1.15c1.54,1.54,1.54,4.03,0,5.57c-0.77,0.77-1.78,1.15-2.78,1.15
		c-1.01,0-2.02-0.38-2.78-1.15c-1.54-1.54-1.54-4.03,0-5.57C66.17,112.76,67.18,112.38,68.18,112.38 M68.18,111.38
		c-1.32,0-2.56,0.51-3.49,1.45c-1.93,1.93-1.93,5.06,0,6.98c0.93,0.93,2.17,1.45,3.49,1.45c1.32,0,2.56-0.51,3.49-1.45
		c0.93-0.93,1.45-2.17,1.45-3.49s-0.51-2.56-1.45-3.49C70.74,111.89,69.5,111.38,68.18,111.38L68.18,111.38z"/>
</g>
<g>
	<path class="st6" d="M313.9,63.54c-1.19,0-2.3-0.46-3.14-1.3c-1.73-1.73-1.73-4.55,0-6.28c0.84-0.84,1.95-1.3,3.14-1.3
		c1.19,0,2.3,0.46,3.14,1.3c1.73,1.73,1.73,4.55,0,6.28C316.2,63.08,315.08,63.54,313.9,63.54z"/>
	<path class="st7" d="M313.9,55.16c1.01,0,2.02,0.38,2.78,1.15c1.54,1.54,1.54,4.03,0,5.57c-0.77,0.77-1.78,1.15-2.78,1.15
		c-1.01,0-2.02-0.38-2.78-1.15c-1.54-1.54-1.54-4.03,0-5.57C311.88,55.55,312.89,55.16,313.9,55.16 M313.9,54.16
		c-1.32,0-2.56,0.51-3.49,1.45c-0.93,0.93-1.45,2.17-1.45,3.49s0.51,2.56,1.45,3.49c0.93,0.93,2.17,1.45,3.49,1.45
		s2.56-0.51,3.49-1.45c1.93-1.93,1.93-5.06,0-6.98C316.46,54.68,315.22,54.16,313.9,54.16L313.9,54.16z"/>
</g>
<g>
	<path class="st6" d="M183.18,254.02c-1.19,0-2.3-0.46-3.14-1.3c-1.73-1.73-1.73-4.55,0-6.28c0.84-0.84,1.95-1.3,3.14-1.3
		s2.3,0.46,3.14,1.3c1.73,1.73,1.73,4.55,0,6.28C185.49,253.56,184.37,254.02,183.18,254.02z"/>
	<path class="st7" d="M183.18,245.65c1.01,0,2.02,0.38,2.78,1.15c1.54,1.54,1.54,4.03,0,5.57c-0.77,0.77-1.78,1.15-2.78,1.15
		c-1.01,0-2.02-0.38-2.78-1.15c-1.54-1.54-1.54-4.03,0-5.57C181.17,246.03,182.18,245.65,183.18,245.65 M183.18,244.65
		c-1.32,0-2.56,0.51-3.49,1.45c-1.93,1.93-1.93,5.06,0,6.98c0.93,0.93,2.17,1.45,3.49,1.45c1.32,0,2.56-0.51,3.49-1.45
		c1.93-1.93,1.93-5.06,0-6.98C185.74,245.16,184.5,244.65,183.18,244.65L183.18,244.65z"/>
</g>
<g>
	<path class="st6" d="M537.09,63.32c-1.19,0-2.3-0.46-3.14-1.3c-1.73-1.73-1.73-4.55,0-6.28c0.84-0.84,1.95-1.3,3.14-1.3
		c1.19,0,2.3,0.46,3.14,1.3c1.73,1.73,1.73,4.55,0,6.28C539.39,62.86,538.27,63.32,537.09,63.32z"/>
	<path class="st7" d="M537.09,54.95c1.01,0,2.02,0.38,2.78,1.15c1.54,1.54,1.54,4.03,0,5.57c-0.77,0.77-1.78,1.15-2.78,1.15
		s-2.02-0.38-2.78-1.15c-1.54-1.54-1.54-4.03,0-5.57C535.07,55.33,536.08,54.95,537.09,54.95 M537.09,53.95
		c-1.32,0-2.56,0.51-3.49,1.45c-1.93,1.93-1.93,5.06,0,6.98c0.93,0.93,2.17,1.45,3.49,1.45c1.32,0,2.56-0.51,3.49-1.45
		c0.93-0.93,1.45-2.17,1.45-3.49s-0.51-2.56-1.45-3.49C539.65,54.46,538.4,53.95,537.09,53.95L537.09,53.95z"/>
</g>
<g>
	<path class="st6" d="M462.36,313.48c-1.18,0-2.3-0.46-3.14-1.3c-1.73-1.73-1.73-4.55,0-6.28c0.84-0.84,1.95-1.3,3.14-1.3
		c1.19,0,2.3,0.46,3.14,1.3c1.73,1.73,1.73,4.55,0,6.28C464.66,313.02,463.54,313.48,462.36,313.48z"/>
	<path class="st7" d="M462.36,305.11c1.01,0,2.02,0.38,2.78,1.15c1.54,1.54,1.54,4.03,0,5.57c-0.77,0.77-1.78,1.15-2.78,1.15
		c-1.01,0-2.02-0.38-2.78-1.15c-1.54-1.54-1.54-4.03,0-5.57C460.34,305.49,461.35,305.11,462.36,305.11 M462.36,304.11
		c-1.32,0-2.56,0.51-3.49,1.45c-0.93,0.93-1.45,2.17-1.45,3.49s0.51,2.56,1.45,3.49c0.93,0.93,2.17,1.45,3.49,1.45
		c1.32,0,2.56-0.51,3.49-1.45c1.93-1.93,1.93-5.06,0-6.98C464.92,304.62,463.68,304.11,462.36,304.11L462.36,304.11z"/>
</g>
<g>
	<path class="st6" d="M624.87,248.8c-0.78,0-1.54-0.21-2.22-0.6c-1.03-0.59-1.76-1.55-2.07-2.69s-0.15-2.34,0.44-3.37
		c0.79-1.37,2.26-2.22,3.85-2.22c0.78,0,1.54,0.21,2.22,0.6c2.12,1.22,2.85,3.94,1.63,6.06C627.92,247.95,626.45,248.8,624.87,248.8
		z"/>
	<path class="st7" d="M624.87,240.42c0.67,0,1.35,0.17,1.97,0.53c1.88,1.09,2.53,3.5,1.44,5.38c-0.73,1.26-2.05,1.97-3.41,1.97
		c-0.67,0-1.35-0.17-1.97-0.53c-1.88-1.09-2.53-3.5-1.44-5.38C622.19,241.13,623.51,240.42,624.87,240.42 M624.87,239.42
		L624.87,239.42c-1.76,0-3.4,0.95-4.28,2.47c-1.36,2.36-0.55,5.38,1.81,6.75c0.75,0.43,1.6,0.66,2.47,0.66
		c1.76,0,3.4-0.95,4.28-2.47c1.36-2.36,0.55-5.38-1.81-6.75C626.59,239.65,625.74,239.42,624.87,239.42L624.87,239.42z"/>
</g>
<g>
	<path class="st6" d="M327.9,313.48c-1.18,0-2.3-0.46-3.14-1.3c-1.73-1.73-1.73-4.55,0-6.28c0.84-0.84,1.95-1.3,3.14-1.3
		c1.19,0,2.3,0.46,3.14,1.3c1.73,1.73,1.73,4.55,0,6.28C330.2,313.02,329.08,313.48,327.9,313.48z"/>
	<path class="st7" d="M327.9,305.11c1.01,0,2.02,0.38,2.78,1.15c1.54,1.54,1.54,4.03,0,5.57c-0.77,0.77-1.78,1.15-2.78,1.15
		c-1.01,0-2.02-0.38-2.78-1.15c-1.54-1.54-1.54-4.03,0-5.57C325.88,305.49,326.89,305.11,327.9,305.11 M327.9,304.11
		c-1.32,0-2.56,0.51-3.49,1.45c-0.93,0.93-1.45,2.17-1.45,3.49s0.51,2.56,1.45,3.49c0.93,0.93,2.17,1.45,3.49,1.45
		c1.32,0,2.56-0.51,3.49-1.45c1.93-1.93,1.93-5.06,0-6.98C330.46,304.62,329.22,304.11,327.9,304.11L327.9,304.11z"/>
</g>
<g>
	<path class="st6" d="M390.47,314.92c-0.34,0-0.66-0.13-0.9-0.37l-4.42-4.42c-0.25-0.25-0.38-0.58-0.37-0.93
		c0.01-0.35,0.15-0.67,0.4-0.92l4.63-4.63c0.26-0.26,0.59-0.4,0.95-0.4c0.35,0,0.69,0.14,0.92,0.39c0.24,0.24,0.36,0.57,0.36,0.92
		l-0.2,9.05C391.81,314.33,391.2,314.92,390.47,314.92z"/>
	<path class="st7" d="M390.75,303.74c0.41,0,0.79,0.31,0.78,0.8l-0.2,9.05c-0.01,0.5-0.43,0.83-0.85,0.83
		c-0.19,0-0.39-0.07-0.55-0.23l-4.43-4.43c-0.31-0.31-0.3-0.82,0.03-1.15l4.63-4.63C390.33,303.82,390.54,303.74,390.75,303.74
		 M390.75,302.74L390.75,302.74c-0.49,0-0.95,0.19-1.3,0.55l-4.63,4.63c-0.71,0.71-0.73,1.86-0.03,2.56l4.43,4.43
		c0.34,0.34,0.78,0.52,1.25,0.52c1,0,1.83-0.81,1.85-1.81l0.2-9.05c0.01-0.49-0.17-0.94-0.5-1.28
		C391.7,302.93,391.23,302.74,390.75,302.74L390.75,302.74z"/>
</g>
<g>
	<path class="st6" d="M175.57,64.86c-0.35,0-0.69-0.14-0.93-0.39c-0.24-0.24-0.36-0.57-0.36-0.92l0.2-9.05
		c0.02-0.73,0.62-1.32,1.35-1.32c0.34,0,0.66,0.13,0.9,0.37l4.43,4.43c0.5,0.5,0.49,1.34-0.03,1.86l-4.63,4.63
		C176.26,64.72,175.93,64.86,175.57,64.86z"/>
	<path class="st7" d="M175.85,53.68c0.19,0,0.39,0.07,0.55,0.23l4.43,4.43c0.31,0.31,0.3,0.82-0.03,1.15l-4.63,4.63
		c-0.17,0.17-0.39,0.25-0.59,0.25c-0.41,0-0.79-0.31-0.78-0.8l0.2-9.05C175.01,54.02,175.42,53.68,175.85,53.68 M175.85,52.68
		L175.85,52.68c-1,0-1.83,0.81-1.85,1.81l-0.2,9.05c-0.01,0.49,0.17,0.94,0.5,1.28c0.33,0.34,0.8,0.54,1.28,0.54
		c0.49,0,0.95-0.19,1.3-0.55l4.63-4.63c0.71-0.71,0.73-1.86,0.03-2.56l-4.43-4.43C176.76,52.86,176.32,52.68,175.85,52.68
		L175.85,52.68z"/>
</g>
<g>
	<path class="st6" d="M417.88,64.86c-0.35,0-0.69-0.14-0.93-0.39c-0.24-0.24-0.36-0.57-0.36-0.92l0.2-9.05
		c0.02-0.73,0.62-1.32,1.35-1.32c0.34,0,0.66,0.13,0.9,0.37l4.43,4.43c0.5,0.5,0.49,1.34-0.03,1.86l-4.63,4.63
		C418.57,64.72,418.24,64.86,417.88,64.86z"/>
	<path class="st7" d="M418.16,53.68c0.19,0,0.39,0.07,0.55,0.23l4.43,4.43c0.31,0.31,0.3,0.82-0.03,1.15l-4.63,4.63
		c-0.17,0.17-0.39,0.25-0.59,0.25c-0.41,0-0.79-0.31-0.78-0.8l0.2-9.05C417.32,54.02,417.73,53.68,418.16,53.68 M418.16,52.68
		L418.16,52.68c-1,0-1.83,0.81-1.85,1.81l-0.2,9.05c-0.01,0.49,0.17,0.94,0.5,1.28c0.33,0.34,0.8,0.54,1.28,0.54
		c0.49,0,0.95-0.19,1.3-0.55l4.63-4.63c0.71-0.71,0.73-1.86,0.03-2.56l-4.43-4.43C419.08,52.86,418.63,52.68,418.16,52.68
		L418.16,52.68z"/>
</g>
<g>
	<path class="st6" d="M578.04,184.2c-0.35,0-0.69-0.14-0.93-0.39c-0.24-0.24-0.36-0.57-0.36-0.92l0.2-9.05
		c0.02-0.73,0.62-1.32,1.35-1.32c0.34,0,0.66,0.13,0.9,0.37l4.43,4.43c0.5,0.5,0.49,1.34-0.03,1.86l-4.63,4.63
		C578.73,184.06,578.39,184.2,578.04,184.2z"/>
	<path class="st7" d="M578.32,173.02c0.19,0,0.39,0.07,0.55,0.23l4.43,4.43c0.31,0.31,0.3,0.82-0.03,1.15l-4.63,4.63
		c-0.17,0.17-0.39,0.25-0.59,0.25c-0.41,0-0.79-0.31-0.78-0.8l0.2-9.05C577.47,173.36,577.89,173.02,578.32,173.02 M578.32,172.02
		L578.32,172.02c-1,0-1.83,0.81-1.85,1.81l-0.2,9.05c-0.01,0.49,0.17,0.94,0.5,1.28c0.33,0.34,0.8,0.54,1.28,0.54
		c0.49,0,0.95-0.19,1.3-0.55l4.63-4.63c0.71-0.71,0.73-1.86,0.03-2.56l-4.43-4.43C579.23,172.21,578.79,172.02,578.32,172.02
		L578.32,172.02z"/>
</g>
<g>
	<path class="st6" d="M585.87,292.39c-0.71-0.01-1.29-0.61-1.28-1.34l0.07-6.54c0.01-0.74,0.58-1.32,1.3-1.32
		c0.35,0,0.68,0.15,0.93,0.41l6.18,6.61c0.37,0.39,0.46,0.97,0.25,1.47c-0.21,0.49-0.66,0.79-1.18,0.79L585.87,292.39z"/>
	<path class="st7" d="M585.96,283.68c0.2,0,0.4,0.08,0.56,0.25l6.18,6.61c0.49,0.53,0.13,1.41-0.57,1.41c0,0-0.01,0-0.01,0
		l-6.26-0.07c-0.44,0-0.79-0.38-0.78-0.84l0.07-6.54C585.17,284.01,585.56,283.68,585.96,283.68 M585.96,282.68L585.96,282.68
		c-1,0-1.79,0.8-1.8,1.81l-0.07,6.54c-0.01,0.48,0.17,0.94,0.5,1.28c0.34,0.36,0.79,0.56,1.28,0.57l6.26,0.07
		c0.74,0,1.37-0.42,1.66-1.09c0.3-0.68,0.16-1.47-0.34-2l-6.18-6.61C586.91,282.88,586.45,282.68,585.96,282.68L585.96,282.68z"/>
</g>
<g>
	<path class="st6" d="M230.87,314.92c-0.34,0-0.66-0.13-0.9-0.37l-4.43-4.43c-0.5-0.5-0.49-1.34,0.03-1.86l4.63-4.63
		c0.26-0.26,0.59-0.4,0.95-0.4c0.35,0,0.69,0.14,0.92,0.39c0.24,0.24,0.37,0.57,0.36,0.92l-0.2,9.05
		C232.21,314.33,231.61,314.92,230.87,314.92z"/>
	<path class="st7" d="M231.15,303.74c0.41,0,0.79,0.31,0.78,0.8l-0.2,9.05c-0.01,0.5-0.43,0.83-0.85,0.83
		c-0.19,0-0.39-0.07-0.55-0.23l-4.43-4.43c-0.31-0.31-0.3-0.82,0.03-1.15l4.63-4.63C230.73,303.82,230.94,303.74,231.15,303.74
		 M231.15,302.74L231.15,302.74c-0.49,0-0.95,0.19-1.3,0.55l-4.63,4.63c-0.71,0.71-0.73,1.86-0.03,2.56l4.43,4.43
		c0.34,0.34,0.78,0.52,1.25,0.52c1,0,1.83-0.81,1.85-1.81l0.2-9.05c0.01-0.49-0.17-0.94-0.5-1.28
		C232.1,302.93,231.63,302.74,231.15,302.74L231.15,302.74z"/>
</g>
<g>
	<path class="st6" d="M51.81,252.49c-0.54-0.01-1.02-0.35-1.22-0.85c-0.2-0.5-0.09-1.03,0.28-1.4l4.43-4.43
		c0.24-0.24,0.56-0.37,0.9-0.37c0.36,0,0.69,0.14,0.95,0.4l4.63,4.63c0.39,0.39,0.5,0.95,0.3,1.45c-0.2,0.48-0.65,0.78-1.18,0.78
		L51.81,252.49z"/>
	<path class="st7" d="M56.2,245.94c0.21,0,0.43,0.08,0.6,0.25l4.63,4.63c0.52,0.52,0.19,1.37-0.52,1.37c-0.01,0-0.01,0-0.02,0
		l-9.05-0.2c-0.72-0.02-1.11-0.9-0.61-1.4l4.43-4.43C55.8,246.01,55.99,245.94,56.2,245.94 M56.2,244.94
		c-0.48,0-0.92,0.18-1.26,0.52l-4.43,4.43c-0.51,0.51-0.66,1.26-0.39,1.94c0.28,0.69,0.94,1.15,1.68,1.17l9.05,0.2c0,0,0,0,0,0
		c0.76,0,1.4-0.43,1.68-1.09c0.28-0.68,0.12-1.46-0.41-1.99l-4.63-4.63C57.15,245.13,56.69,244.94,56.2,244.94L56.2,244.94z"/>
</g>
<g>
	<path class="st6" d="M621.88,120.52c-0.17,0-0.35-0.03-0.51-0.1l-6.07-2.45c-0.51-0.21-0.84-0.69-0.84-1.23
		c0-0.53,0.31-0.98,0.8-1.18l8.41-3.36c0.16-0.06,0.33-0.1,0.5-0.1c0.45,0,0.87,0.23,1.13,0.6c0.24,0.36,0.29,0.8,0.13,1.2
		l-2.34,5.8C622.89,120.2,622.42,120.52,621.88,120.52z"/>
	<path class="st7" d="M624.17,112.61c0.55,0,1.01,0.56,0.79,1.11l-2.34,5.8c-0.12,0.31-0.42,0.49-0.74,0.49
		c-0.11,0-0.22-0.02-0.32-0.06l-6.07-2.45c-0.69-0.28-0.71-1.21-0.04-1.48l8.41-3.36C623.97,112.63,624.07,112.61,624.17,112.61
		 M624.17,111.61L624.17,111.61c-0.23,0-0.46,0.04-0.68,0.13l-8.41,3.36c-0.68,0.27-1.12,0.92-1.12,1.64c0,0.74,0.45,1.41,1.15,1.69
		l6.07,2.45c0.22,0.09,0.46,0.14,0.7,0.14c0.74,0,1.4-0.44,1.67-1.12l2.34-5.8c0.22-0.56,0.16-1.16-0.18-1.66
		C625.37,111.92,624.79,111.61,624.17,111.61L624.17,111.61z"/>
</g>
<g>
	<g>
		<path class="st5" d="M76.84,346.96c0-1.03,0.62-1.77,1.63-2.2l-0.01-0.04c-0.91-0.43-1.3-1.14-1.3-1.84c0-1.3,1.1-2.18,2.54-2.18
			c1.59,0,2.38,1,2.38,2.02c0,0.69-0.34,1.44-1.35,1.92v0.04c1.02,0.4,1.65,1.12,1.65,2.12c0,1.43-1.22,2.38-2.79,2.38
			C77.88,349.18,76.84,348.16,76.84,346.96z M81.26,346.91c0-1-0.69-1.48-1.8-1.79c-0.96,0.28-1.48,0.91-1.48,1.69
			c-0.04,0.83,0.59,1.56,1.64,1.56C80.61,348.37,81.26,347.75,81.26,346.91z M78.2,342.81c0,0.82,0.62,1.26,1.56,1.51
			c0.71-0.24,1.25-0.74,1.25-1.49c0-0.66-0.39-1.34-1.39-1.34C78.71,341.49,78.2,342.1,78.2,342.81z"/>
	</g>
	<g>
		<path class="st5" d="M79.59,353.6c-4.63,0-8.39-3.76-8.39-8.39c0-4.63,3.76-8.39,8.39-8.39c4.63,0,8.39,3.76,8.39,8.39
			C87.98,349.84,84.21,353.6,79.59,353.6z M79.59,337.36c-4.33,0-7.85,3.52-7.85,7.85s3.52,7.85,7.85,7.85s7.85-3.52,7.85-7.85
			S83.91,337.36,79.59,337.36z"/>
	</g>
</g>
<g>
	<g>
		<path class="st5" d="M118.52,93.92h-1.12v-7.44l-2.25,0.83v-1.01l3.2-1.2h0.18V93.92z"/>
	</g>
	<g>
		<path class="st5" d="M117.48,97.9c-4.63,0-8.39-3.76-8.39-8.39c0-4.63,3.76-8.39,8.39-8.39c4.63,0,8.39,3.76,8.39,8.39
			C125.87,94.13,122.11,97.9,117.48,97.9z M117.48,81.66c-4.33,0-7.85,3.52-7.85,7.85c0,4.33,3.52,7.85,7.85,7.85
			c4.33,0,7.85-3.52,7.85-7.85C125.33,85.18,121.81,81.66,117.48,81.66z"/>
	</g>
</g>
<g>
	<g>
		<path class="st5" d="M573.07,88.96h0.84c0.53-0.01,0.94-0.15,1.24-0.42c0.3-0.27,0.45-0.63,0.45-1.09c0-1.03-0.51-1.54-1.54-1.54
			c-0.48,0-0.87,0.14-1.16,0.41c-0.29,0.28-0.43,0.64-0.43,1.09h-1.12c0-0.7,0.25-1.27,0.76-1.73c0.51-0.46,1.16-0.69,1.94-0.69
			c0.83,0,1.48,0.22,1.95,0.66c0.47,0.44,0.71,1.05,0.71,1.83c0,0.38-0.12,0.75-0.37,1.11c-0.25,0.36-0.58,0.63-1.01,0.8
			c0.48,0.15,0.86,0.41,1.12,0.76c0.26,0.35,0.4,0.79,0.4,1.3c0,0.79-0.26,1.41-0.77,1.88c-0.51,0.46-1.19,0.69-2.01,0.69
			c-0.82,0-1.5-0.22-2.01-0.67c-0.52-0.45-0.78-1.04-0.78-1.77h1.12c0,0.46,0.15,0.83,0.45,1.11c0.3,0.28,0.71,0.42,1.21,0.42
			c0.54,0,0.95-0.14,1.24-0.42c0.29-0.28,0.43-0.69,0.43-1.21c0-0.51-0.16-0.9-0.47-1.18c-0.31-0.27-0.77-0.41-1.36-0.42h-0.84
			V88.96z"/>
	</g>
	<g>
		<path class="st5" d="M574.07,97.9c-4.63,0-8.39-3.76-8.39-8.39c0-4.63,3.76-8.39,8.39-8.39c4.63,0,8.39,3.76,8.39,8.39
			C582.46,94.13,578.69,97.9,574.07,97.9z M574.07,81.66c-4.33,0-7.85,3.52-7.85,7.85c0,4.33,3.52,7.85,7.85,7.85
			c4.33,0,7.85-3.52,7.85-7.85C581.92,85.18,578.4,81.66,574.07,81.66z"/>
	</g>
</g>
<g>
	<g>
		<path class="st5" d="M370.48,80.08h-5.76v-0.8l3.04-3.38c0.45-0.51,0.76-0.93,0.93-1.25c0.17-0.32,0.26-0.65,0.26-0.99
			c0-0.46-0.14-0.83-0.42-1.13c-0.28-0.29-0.65-0.44-1.11-0.44c-0.56,0-0.99,0.16-1.29,0.47c-0.31,0.32-0.46,0.76-0.46,1.32h-1.12
			c0-0.81,0.26-1.46,0.78-1.96c0.52-0.5,1.22-0.75,2.09-0.75c0.82,0,1.46,0.21,1.94,0.64c0.47,0.43,0.71,1,0.71,1.71
			c0,0.86-0.55,1.89-1.65,3.09l-2.35,2.55h4.41V80.08z"/>
	</g>
	<g>
		<path class="st5" d="M367.51,84.21c-4.63,0-8.39-3.76-8.39-8.39c0-4.63,3.76-8.39,8.39-8.39c4.63,0,8.39,3.76,8.39,8.39
			C375.91,80.44,372.14,84.21,367.51,84.21z M367.51,67.97c-4.33,0-7.85,3.52-7.85,7.85c0,4.33,3.52,7.85,7.85,7.85
			c4.33,0,7.85-3.52,7.85-7.85C375.36,71.49,371.84,67.97,367.51,67.97z"/>
	</g>
</g>
<g>
	<g>
		<path class="st5" d="M596.96,265.38c-4.63,0-8.39-3.76-8.39-8.39c0-4.63,3.76-8.39,8.39-8.39c4.63,0,8.39,3.76,8.39,8.39
			C605.35,261.61,601.59,265.38,596.96,265.38z M596.96,249.14c-4.33,0-7.85,3.52-7.85,7.85c0,4.33,3.52,7.85,7.85,7.85
			c4.33,0,7.85-3.52,7.85-7.85C604.81,252.66,601.29,249.14,596.96,249.14z"/>
	</g>
	<g>
		<path class="st5" d="M598.91,258.43h1.22v0.91h-1.22v2.04h-1.12v-2.04h-4v-0.66l3.93-6.09h1.19V258.43z M595.06,258.43h2.73v-4.31
			l-0.13,0.24L595.06,258.43z"/>
	</g>
</g>
<g>
	<g>
		<path class="st5" d="M425.84,301.63c-4.63,0-8.39-3.76-8.39-8.39c0-4.63,3.76-8.39,8.39-8.39s8.39,3.76,8.39,8.39
			C434.23,297.86,430.47,301.63,425.84,301.63z M425.84,285.39c-4.33,0-7.85,3.52-7.85,7.85c0,4.33,3.52,7.85,7.85,7.85
			s7.85-3.52,7.85-7.85C433.69,288.91,430.17,285.39,425.84,285.39z"/>
	</g>
	<g>
		<path class="st5" d="M423.4,293.16l0.45-4.38h4.5v1.03h-3.55l-0.27,2.39c0.43-0.25,0.92-0.38,1.47-0.38c0.8,0,1.44,0.26,1.91,0.79
			c0.47,0.53,0.71,1.24,0.71,2.14c0,0.9-0.24,1.62-0.73,2.14c-0.49,0.52-1.17,0.78-2.05,0.78c-0.78,0-1.41-0.22-1.9-0.65
			c-0.49-0.43-0.77-1.03-0.84-1.79h1.06c0.07,0.5,0.25,0.88,0.54,1.14c0.29,0.26,0.67,0.38,1.15,0.38c0.52,0,0.93-0.18,1.22-0.53
			c0.29-0.35,0.44-0.84,0.44-1.47c0-0.59-0.16-1.06-0.48-1.41c-0.32-0.36-0.74-0.53-1.28-0.53c-0.49,0-0.87,0.11-1.15,0.32
			l-0.3,0.24L423.4,293.16z"/>
	</g>
</g>
<g class="st8">
	<g>
		<path class="st3" d="M360.16,420.21c-0.23,1.96-0.95,3.47-2.17,4.53s-2.83,1.59-4.85,1.59c-2.19,0-3.94-0.78-5.26-2.35
			s-1.98-3.67-1.98-6.29v-1.78c0-1.72,0.31-3.23,0.92-4.54c0.61-1.3,1.48-2.31,2.61-3c1.13-0.7,2.43-1.05,3.91-1.05
			c1.97,0,3.54,0.55,4.73,1.65c1.19,1.1,1.88,2.62,2.07,4.56h-2.45c-0.21-1.48-0.67-2.55-1.38-3.21c-0.71-0.66-1.7-0.99-2.97-0.99
			c-1.56,0-2.78,0.58-3.67,1.73c-0.88,1.15-1.33,2.79-1.33,4.92v1.79c0,2.01,0.42,3.61,1.26,4.8c0.84,1.19,2.01,1.78,3.52,1.78
			c1.36,0,2.4-0.31,3.12-0.92c0.72-0.61,1.21-1.68,1.44-3.21H360.16z"/>
		<path class="st3" d="M371.62,426.08c-0.14-0.27-0.25-0.75-0.33-1.45c-1.09,1.14-2.4,1.7-3.92,1.7c-1.36,0-2.47-0.38-3.34-1.15
			c-0.87-0.77-1.3-1.74-1.3-2.92c0-1.43,0.54-2.54,1.63-3.34c1.09-0.79,2.62-1.19,4.59-1.19h2.29v-1.08c0-0.82-0.25-1.48-0.74-1.96
			c-0.49-0.49-1.22-0.73-2.17-0.73c-0.84,0-1.54,0.21-2.11,0.64c-0.57,0.42-0.85,0.94-0.85,1.54h-2.36c0-0.69,0.24-1.35,0.73-1.99
			s1.15-1.15,1.98-1.52c0.83-0.37,1.75-0.56,2.75-0.56c1.58,0,2.83,0.4,3.72,1.19c0.9,0.79,1.36,1.88,1.4,3.27v6.33
			c0,1.26,0.16,2.27,0.48,3.01v0.2H371.62z M367.71,424.29c0.74,0,1.44-0.19,2.1-0.57c0.66-0.38,1.14-0.88,1.44-1.49v-2.82h-1.84
			c-2.88,0-4.32,0.84-4.32,2.53c0,0.74,0.25,1.31,0.74,1.73S366.94,424.29,367.71,424.29z"/>
		<path class="st3" d="M388.9,419.35c0,2.09-0.48,3.78-1.44,5.06c-0.96,1.28-2.25,1.92-3.89,1.92c-1.67,0-2.98-0.53-3.94-1.59v6.62
			h-2.35v-19.04h2.15l0.11,1.52c0.96-1.19,2.29-1.78,3.99-1.78c1.65,0,2.96,0.62,3.92,1.87c0.96,1.25,1.44,2.98,1.44,5.2V419.35z
			 M386.55,419.09c0-1.55-0.33-2.77-0.99-3.67c-0.66-0.9-1.57-1.35-2.72-1.35c-1.42,0-2.49,0.63-3.2,1.89v6.57
			c0.7,1.25,1.78,1.88,3.23,1.88c1.13,0,2.02-0.45,2.69-1.34C386.22,422.18,386.55,420.85,386.55,419.09z"/>
		<path class="st3" d="M391.9,408.68c0-0.38,0.12-0.7,0.35-0.97c0.23-0.26,0.58-0.39,1.04-0.39c0.46,0,0.81,0.13,1.04,0.39
			c0.24,0.26,0.36,0.58,0.36,0.97c0,0.38-0.12,0.7-0.36,0.95c-0.24,0.25-0.58,0.38-1.04,0.38c-0.46,0-0.8-0.13-1.04-0.38
			C392.02,409.38,391.9,409.06,391.9,408.68z M394.44,426.08h-2.35v-13.75h2.35V426.08z"/>
		<path class="st3" d="M401.39,409v3.33h2.57v1.82h-2.57v8.54c0,0.55,0.12,0.96,0.34,1.24c0.23,0.28,0.62,0.41,1.17,0.41
			c0.27,0,0.64-0.05,1.12-0.15v1.9c-0.62,0.17-1.22,0.25-1.8,0.25c-1.05,0-1.84-0.32-2.38-0.95c-0.53-0.64-0.8-1.54-0.8-2.71v-8.53
			h-2.5v-1.82h2.5V409H401.39z"/>
		<path class="st3" d="M415.2,426.08c-0.14-0.27-0.25-0.75-0.33-1.45c-1.09,1.14-2.4,1.7-3.92,1.7c-1.36,0-2.47-0.38-3.34-1.15
			c-0.87-0.77-1.3-1.74-1.3-2.92c0-1.43,0.54-2.54,1.63-3.34c1.09-0.79,2.62-1.19,4.59-1.19h2.29v-1.08c0-0.82-0.25-1.48-0.74-1.96
			c-0.49-0.49-1.22-0.73-2.17-0.73c-0.84,0-1.54,0.21-2.11,0.64c-0.57,0.42-0.85,0.94-0.85,1.54h-2.36c0-0.69,0.24-1.35,0.73-1.99
			s1.15-1.15,1.98-1.52c0.83-0.37,1.75-0.56,2.75-0.56c1.58,0,2.83,0.4,3.72,1.19c0.9,0.79,1.36,1.88,1.4,3.27v6.33
			c0,1.26,0.16,2.27,0.48,3.01v0.2H415.2z M411.29,424.29c0.74,0,1.44-0.19,2.1-0.57c0.66-0.38,1.14-0.88,1.44-1.49v-2.82h-1.84
			c-2.88,0-4.32,0.84-4.32,2.53c0,0.74,0.25,1.31,0.74,1.73S410.52,424.29,411.29,424.29z"/>
		<path class="st3" d="M423.42,426.08h-2.35v-19.52h2.35V426.08z"/>
		<path class="st3" d="M436.61,426.08h-2.44v-18.5h2.44V426.08z"/>
		<path class="st3" d="M442.93,412.33l0.08,1.73c1.05-1.32,2.42-1.98,4.12-1.98c2.91,0,4.37,1.64,4.4,4.92v9.09h-2.35v-9.1
			c-0.01-0.99-0.24-1.72-0.68-2.2c-0.44-0.47-1.14-0.71-2.08-0.71c-0.76,0-1.43,0.2-2.01,0.61c-0.58,0.41-1.03,0.94-1.35,1.6v9.8
			h-2.35v-13.75H442.93z"/>
		<path class="st3" d="M459.6,422.89l3.41-10.56h2.4l-4.93,13.75h-1.79l-4.98-13.75h2.4L459.6,422.89z"/>
		<path class="st3" d="M473.21,426.33c-1.86,0-3.38-0.61-4.55-1.84c-1.17-1.22-1.75-2.86-1.75-4.91v-0.43
			c0-1.36,0.26-2.58,0.78-3.65c0.52-1.07,1.25-1.91,2.19-2.52s1.95-0.91,3.04-0.91c1.79,0,3.18,0.59,4.17,1.77s1.49,2.86,1.49,5.06
			v0.98h-9.32c0.03,1.36,0.43,2.45,1.19,3.29c0.76,0.83,1.72,1.25,2.89,1.25c0.83,0,1.53-0.17,2.11-0.51s1.08-0.79,1.51-1.35
			l1.44,1.12C477.25,425.45,475.52,426.33,473.21,426.33z M472.92,414c-0.95,0-1.75,0.35-2.39,1.04c-0.64,0.69-1.04,1.66-1.19,2.9
			h6.89v-0.18c-0.07-1.2-0.39-2.12-0.97-2.78C474.68,414.33,473.9,414,472.92,414z"/>
		<path class="st3" d="M489.3,422.43c0-0.64-0.24-1.13-0.72-1.48s-1.31-0.66-2.5-0.91s-2.13-0.56-2.83-0.92s-1.22-0.78-1.55-1.27
			s-0.5-1.08-0.5-1.75c0-1.13,0.48-2.08,1.43-2.86c0.95-0.78,2.17-1.17,3.65-1.17c1.56,0,2.82,0.4,3.79,1.21
			c0.97,0.8,1.46,1.83,1.46,3.09h-2.36c0-0.64-0.27-1.2-0.82-1.67c-0.55-0.47-1.24-0.7-2.07-0.7c-0.86,0-1.53,0.19-2.01,0.56
			c-0.48,0.37-0.72,0.86-0.72,1.46c0,0.57,0.22,1,0.67,1.28s1.26,0.56,2.43,0.83c1.17,0.26,2.12,0.58,2.85,0.94
			c0.73,0.36,1.27,0.8,1.62,1.32s0.53,1.14,0.53,1.88c0,1.23-0.49,2.21-1.47,2.96c-0.98,0.74-2.26,1.11-3.83,1.11
			c-1.1,0-2.08-0.19-2.92-0.58c-0.85-0.39-1.51-0.93-1.99-1.63c-0.48-0.7-0.72-1.46-0.72-2.27h2.35c0.04,0.79,0.36,1.41,0.95,1.88
			s1.37,0.69,2.33,0.69c0.89,0,1.6-0.18,2.14-0.54S489.3,423.03,489.3,422.43z"/>
		<path class="st3" d="M497.91,409v3.33h2.57v1.82h-2.57v8.54c0,0.55,0.11,0.96,0.34,1.24c0.23,0.28,0.62,0.41,1.17,0.41
			c0.27,0,0.64-0.05,1.12-0.15v1.9c-0.62,0.17-1.22,0.25-1.8,0.25c-1.05,0-1.84-0.32-2.38-0.95s-0.8-1.54-0.8-2.71v-8.53h-2.5v-1.82
			h2.5V409H497.91z"/>
		<path class="st3" d="M505.43,412.33l0.06,1.52c1.01-1.19,2.37-1.78,4.08-1.78c1.92,0,3.23,0.74,3.93,2.21
			c0.46-0.66,1.05-1.2,1.79-1.6c0.73-0.41,1.6-0.61,2.6-0.61c3.02,0,4.55,1.6,4.6,4.79v9.21h-2.35V417c0-0.98-0.22-1.72-0.67-2.21
			c-0.45-0.49-1.2-0.73-2.26-0.73c-0.87,0-1.6,0.26-2.17,0.78c-0.58,0.52-0.91,1.22-1,2.1v9.13h-2.36v-9.01c0-2-0.98-3-2.94-3
			c-1.54,0-2.6,0.66-3.16,1.97v10.04h-2.35v-13.75H505.43z"/>
		<path class="st3" d="M531.74,426.33c-1.86,0-3.38-0.61-4.55-1.84c-1.17-1.22-1.75-2.86-1.75-4.91v-0.43
			c0-1.36,0.26-2.58,0.78-3.65c0.52-1.07,1.25-1.91,2.19-2.52s1.95-0.91,3.04-0.91c1.79,0,3.18,0.59,4.17,1.77s1.49,2.86,1.49,5.06
			v0.98h-9.32c0.03,1.36,0.43,2.45,1.19,3.29c0.76,0.83,1.72,1.25,2.89,1.25c0.83,0,1.53-0.17,2.11-0.51s1.08-0.79,1.51-1.35
			l1.44,1.12C535.77,425.45,534.04,426.33,531.74,426.33z M531.45,414c-0.95,0-1.75,0.35-2.39,1.04c-0.64,0.69-1.04,1.66-1.19,2.9
			h6.89v-0.18c-0.07-1.2-0.39-2.12-0.97-2.78C533.21,414.33,532.43,414,531.45,414z"/>
		<path class="st3" d="M542.05,412.33l0.08,1.73c1.05-1.32,2.42-1.98,4.12-1.98c2.91,0,4.37,1.64,4.4,4.92v9.09h-2.35v-9.1
			c-0.01-0.99-0.24-1.72-0.68-2.2c-0.44-0.47-1.14-0.71-2.08-0.71c-0.76,0-1.43,0.2-2.01,0.61c-0.58,0.41-1.03,0.94-1.35,1.6v9.8
			h-2.35v-13.75H542.05z"/>
		<path class="st3" d="M557.38,409v3.33h2.57v1.82h-2.57v8.54c0,0.55,0.11,0.96,0.34,1.24c0.23,0.28,0.62,0.41,1.17,0.41
			c0.27,0,0.64-0.05,1.12-0.15v1.9c-0.62,0.17-1.22,0.25-1.8,0.25c-1.05,0-1.84-0.32-2.38-0.95s-0.8-1.54-0.8-2.71v-8.53h-2.5v-1.82
			h2.5V409H557.38z"/>
	</g>
</g>
<g>
	<path class="st4" d="M47.77,232.15H42.7v4.15h5.89v1.26h-7.43v-11.7h7.35v1.26H42.7v3.77h5.07V232.15z"/>
	<path class="st4" d="M58.75,227.12h-3.76v10.44h-1.54v-10.44H49.7v-1.26h9.05V227.12z"/>
	<path class="st4" d="M69.48,237.56h-1.55v-5.41h-5.9v5.41h-1.54v-11.7h1.54v5.03h5.9v-5.03h1.55V237.56z"/>
</g>
<g>
	<g>
		<g>
			<g>
				<path class="st5" d="M286.81,41.41c-0.86-0.73-1.73-1.45-2.62-2.14c-0.31-0.25-0.48-0.46-0.43-0.9
					c0.11-0.92-0.18-1.76-0.82-2.42c-0.28-0.29-0.25-0.46-0.06-0.75c1.01-1.57,1.96-3.17,2.51-4.97c0.25-0.81,0.41-1.63,0.21-2.48
					c-0.31-1.3-1.28-1.8-2.5-1.28c-0.15,0.06-0.3,0.14-0.45,0.2c-0.43,0.17-0.84,0.16-1.24-0.09c-0.5-0.32-1.05-0.54-1.6-0.75
					c-0.37,0-0.74,0-1.11,0c-0.57,0.08-1.09,0.25-1.59,0.55c-0.44,0.27-0.93,0.35-1.39,0.04c-0.52-0.35-1.1-0.5-1.7-0.59
					c-0.37,0-0.74,0-1.11,0c-0.39,0.17-0.81,0.29-1.16,0.53c-0.71,0.49-1.36,0.47-2.12,0.1c-1.11-0.55-2-0.12-2.4,1.06
					c-0.23,0.68-0.19,1.38-0.03,2.06c0.43,1.95,1.43,3.64,2.44,5.33c0.09,0.15,0.38,0.31,0.04,0.55c-0.28,0.2-0.4,0.02-0.56-0.13
					c-0.95-0.89-2.05-1.49-3.34-1.7c-0.59-0.1-1.19-0.08-1.78-0.03c-1.58,0.15-3.05-0.17-4.41-1.01c-0.58-0.36-1.1-0.28-1.4,0.19
					c-0.32,0.49-0.15,1,0.45,1.39c0.14,0.09,0.28,0.17,0.42,0.25c1.54,0.83,3.17,1.21,4.91,1.02c1.67-0.18,3.08,0.28,4.2,1.55
					c0.09,0.1,0.25,0.18,0.12,0.37c-1.26,0.01-2.52,0.18-3.75,0.53c-2.09,0.6-3.89,1.62-5.06,3.54c-0.32,0.52-0.19,1.07,0.26,1.34
					c0.44,0.27,0.94,0.15,1.28-0.34c1.77-2.61,4.47-3.04,7.31-3.17c-0.1,0.17-0.23,0.28-0.36,0.39c-2.2,1.73-4.26,3.61-6.07,5.74
					c-4.54,5.32-7.5,11.27-7.17,18.48l0,0c0,0.51,0.41,0.92,0.92,0.92c0.51,0,0.92-0.41,0.92-0.92c0-0.01,0-0.02,0-0.03c0,0,0,0,0,0
					c-0.01-0.19-0.02-0.37-0.03-0.56c-0.13-3.74,0.84-7.21,2.54-10.51c2.29-4.43,5.59-8.01,9.39-11.17c0.65-0.54,1.24-1.05,2.1-0.41
					c0.14,0.1,0.35,0.11,0.53,0.15c2.4,0.57,4.83,0.62,7.28,0.41c1.47-0.12,2.94-0.28,4.23-1.12c0.26-0.17,0.38,0.02,0.52,0.14
					c0.83,0.67,1.65,1.35,2.47,2.03c0.57,0.47,1.08,0.49,1.46,0.05C287.45,42.41,287.38,41.89,286.81,41.41z M281.02,39.39
					c-1.63,0.45-3.29,0.64-5.38,0.64c-1.23,0.01-2.83-0.2-4.4-0.57c-0.96-0.23-1.37-1.1-0.96-1.99c0.25-0.54,0.68-0.75,1.31-0.61
					c1.68,0.38,3.38,0.6,5.11,0.53c1.25-0.05,2.48-0.25,3.7-0.52c0.79-0.17,1.32,0.14,1.49,0.87
					C282.08,38.54,281.76,39.19,281.02,39.39z M281.03,34.66c-0.1,0.16-0.21,0.26-0.42,0.31c-2.67,0.65-5.34,0.79-8.04,0.21
					c-0.45-0.1-0.76-0.26-1.01-0.67c-0.91-1.51-1.84-3-2.38-4.69c-0.04-0.14-0.09-0.27-0.12-0.41c-0.1-0.36-0.28-0.81-0.09-1.07
					c0.23-0.3,0.59,0.11,0.89,0.18c0.91,0.21,1.77,0.09,2.53-0.43c0.76-0.52,1.43-0.5,2.21-0.01c1.22,0.77,2.48,0.73,3.7-0.07
					c0.51-0.34,1.07-0.53,1.61-0.17c1.24,0.82,2.51,1.04,3.91,0.31c0.1,0.86-0.18,1.57-0.46,2.27
					C282.76,31.93,281.92,33.31,281.03,34.66z"/>
			</g>
			<g>
				<path class="st5" d="M276.47,85.61c-9.38,0-17.64-6.16-20.58-15.33c-0.14-0.45,0.1-0.93,0.55-1.07c0.45-0.14,0.93,0.1,1.07,0.55
					c2.7,8.46,10.32,14.14,18.95,14.14c11,0,19.95-9.25,19.95-20.62c0-5.39-2-10.5-5.64-14.36c-0.32-0.34-0.31-0.88,0.04-1.21
					c0.34-0.32,0.88-0.31,1.21,0.04c3.94,4.19,6.1,9.7,6.1,15.53C298.13,75.6,288.42,85.61,276.47,85.61z"/>
			</g>
		</g>
		<g>
			<g>
				<g>
					<polygon class="st5" points="279.9,52.91 276.57,62.88 273.15,52.91 269.85,52.91 269.9,66.5 272.49,66.5 272.45,57.19 
						275.65,66.5 277.52,66.5 280.07,58.84 280.13,71.81 283.29,71.81 283.21,52.91 					"/>
				</g>
			</g>
		</g>
	</g>
	<g>
		<path class="st4" d="M257.84,96l3.83,9.55l3.83-9.55h2v11.7h-1.54v-4.56l0.14-4.92l-3.84,9.47h-1.18l-3.83-9.45l0.15,4.89v4.56
			h-1.54V96H257.84z"/>
		<path class="st4" d="M276.83,102.29h-5.07v4.15h5.89v1.26h-7.43V96h7.35v1.26h-5.81v3.77h5.07V102.29z"/>
		<path class="st4" d="M286.18,102.29h-5.07v4.15H287v1.26h-7.43V96h7.35v1.26h-5.81v3.77h5.07V102.29z"/>
		<path class="st4" d="M288.92,107.7V96h3.3c1.02,0,1.92,0.22,2.7,0.67c0.78,0.45,1.39,1.09,1.81,1.92
			c0.43,0.83,0.64,1.78,0.65,2.86v0.75c0,1.1-0.21,2.07-0.64,2.9c-0.43,0.83-1.03,1.47-1.82,1.91c-0.79,0.44-1.71,0.67-2.76,0.68
			H288.92z M290.47,97.26v9.18h1.62c1.19,0,2.11-0.37,2.78-1.11c0.66-0.74,0.99-1.79,0.99-3.16v-0.68c0-1.33-0.31-2.36-0.94-3.1
			s-1.51-1.11-2.66-1.12H290.47z"/>
	</g>
</g>
<g>
	<g>
		<g>
			<path class="st5" d="M207.83,60.03c1.78,1.37,3.56,2.74,5.34,4.11c0.1,0.08,0.21,0.13,0.33,0.14c0.12-0.01,0.21-0.06,0.3-0.13
				c1.78-1.37,3.56-2.73,5.34-4.1c0.26-0.2,0.3-0.38,0.13-0.67c-1.79-3.03-3.58-6.06-5.37-9.09c-0.23-0.38-0.59-0.38-0.82,0
				c-1.79,3.03-3.58,6.06-5.37,9.09C207.53,59.65,207.57,59.83,207.83,60.03z M218.18,59.71c-1.41,1.09-2.82,2.17-4.21,3.24
				c-0.08-0.03-0.07-0.08-0.07-0.11c0-1.84,0-3.69,0-5.53c0-0.13-0.05-0.3,0.19-0.15c1.34,0.83,2.68,1.65,4.02,2.48
				C218.14,59.64,218.15,59.67,218.18,59.71z M213.9,52.05c0.02-0.01,0.04-0.01,0.06-0.02c1.23,2.09,2.47,4.17,3.7,6.26
				c-0.09,0.06-0.14-0.02-0.19-0.05c-1.12-0.68-2.23-1.37-3.35-2.06c-0.11-0.07-0.23-0.11-0.22-0.29
				C213.91,54.61,213.9,53.33,213.9,52.05z M213,52.04c0.11,0.05,0.06,0.13,0.06,0.19c0,1.19,0,2.38,0,3.56c0,0.15,0,0.26-0.16,0.36
				c-1.17,0.71-2.33,1.43-3.5,2.15c-0.02,0.01-0.06,0.02-0.13,0.04C210.54,56.22,211.77,54.13,213,52.04z M213.05,57.05
				c0,1.99,0,3.93,0,5.94c-1.44-1.11-2.85-2.19-4.29-3.3C210.19,58.81,211.6,57.94,213.05,57.05z"/>
			<path class="st5" d="M219.6,60.54c-0.08,0.04-0.15,0.1-0.22,0.16c-1.89,1.51-3.78,3.02-5.66,4.54c-0.17,0.14-0.28,0.14-0.45,0
				c-1.89-1.52-3.79-3.04-5.69-4.56c-0.2-0.16-0.41-0.3-0.66-0.09c-0.23,0.19-0.16,0.41-0.05,0.64c2.06,4.39,4.11,8.78,6.17,13.16
				c0.09,0.2,0.2,0.39,0.46,0.38c0.25-0.01,0.35-0.18,0.44-0.37c2.06-4.39,4.11-8.78,6.17-13.16c0.05-0.1,0.08-0.21,0.11-0.28
				C220.21,60.6,219.88,60.4,219.6,60.54z M213.07,72.29c0,0.02-0.01,0.03-0.04,0.11c-1.55-3.31-3.08-6.58-4.63-9.87
				c0.16-0.03,0.22,0.07,0.29,0.13c1.39,1.11,2.79,2.23,4.18,3.34c0.12,0.09,0.2,0.18,0.2,0.35
				C213.07,68.33,213.07,70.31,213.07,72.29z M213.96,72.36c-0.02-0.01-0.04-0.02-0.06-0.02c0-1.99,0-3.98,0-5.97
				c0-0.11-0.01-0.21,0.1-0.3c1.51-1.2,3.02-2.41,4.58-3.59C217.04,65.77,215.5,69.07,213.96,72.36z"/>
		</g>
		<g>
			<g>
				<path class="st5" d="M223.88,41.41c-0.86-0.73-1.73-1.45-2.62-2.14c-0.31-0.25-0.48-0.46-0.43-0.9
					c0.11-0.92-0.18-1.76-0.82-2.42c-0.28-0.29-0.25-0.46-0.06-0.75c1.01-1.57,1.96-3.17,2.51-4.97c0.25-0.81,0.41-1.63,0.21-2.48
					c-0.31-1.3-1.28-1.8-2.5-1.28c-0.15,0.06-0.3,0.14-0.45,0.2c-0.43,0.17-0.84,0.16-1.24-0.09c-0.5-0.32-1.05-0.54-1.6-0.75
					c-0.37,0-0.74,0-1.11,0c-0.57,0.08-1.09,0.25-1.59,0.55c-0.44,0.27-0.93,0.35-1.39,0.04c-0.52-0.35-1.1-0.5-1.7-0.59
					c-0.37,0-0.74,0-1.11,0c-0.39,0.17-0.81,0.29-1.16,0.53c-0.71,0.49-1.36,0.47-2.12,0.1c-1.11-0.55-2-0.12-2.4,1.06
					c-0.23,0.68-0.19,1.38-0.03,2.06c0.43,1.95,1.43,3.64,2.44,5.33c0.09,0.15,0.38,0.31,0.04,0.55c-0.28,0.2-0.4,0.02-0.56-0.13
					c-0.95-0.89-2.05-1.49-3.34-1.7c-0.59-0.1-1.19-0.08-1.78-0.03c-1.58,0.15-3.05-0.17-4.41-1.01c-0.58-0.36-1.1-0.28-1.4,0.19
					c-0.32,0.49-0.15,1,0.45,1.39c0.14,0.09,0.28,0.17,0.42,0.25c1.54,0.83,3.17,1.21,4.91,1.02c1.67-0.18,3.08,0.28,4.2,1.55
					c0.09,0.1,0.25,0.18,0.12,0.37c-1.26,0.01-2.52,0.18-3.75,0.53c-2.09,0.6-3.89,1.62-5.06,3.54c-0.32,0.52-0.19,1.07,0.26,1.34
					c0.44,0.27,0.94,0.15,1.28-0.34c1.77-2.61,4.47-3.04,7.31-3.17c-0.1,0.17-0.23,0.28-0.36,0.39c-2.2,1.73-4.26,3.61-6.07,5.74
					c-4.54,5.32-7.5,11.27-7.17,18.48l0,0c0,0.51,0.41,0.92,0.92,0.92c0.51,0,0.92-0.41,0.92-0.92c0-0.01,0-0.02,0-0.03c0,0,0,0,0,0
					c-0.01-0.19-0.02-0.37-0.03-0.56c-0.13-3.74,0.84-7.21,2.54-10.51c2.29-4.43,5.59-8.01,9.39-11.17c0.65-0.54,1.24-1.05,2.1-0.41
					c0.14,0.1,0.35,0.11,0.53,0.15c2.4,0.57,4.83,0.62,7.28,0.41c1.47-0.12,2.94-0.28,4.23-1.12c0.26-0.17,0.38,0.02,0.52,0.14
					c0.83,0.67,1.65,1.35,2.47,2.03c0.57,0.47,1.08,0.49,1.46,0.05C224.51,42.41,224.44,41.89,223.88,41.41z M218.09,39.39
					c-1.63,0.45-3.29,0.64-5.38,0.64c-1.23,0.01-2.83-0.2-4.4-0.57c-0.96-0.23-1.37-1.1-0.96-1.99c0.25-0.54,0.68-0.75,1.31-0.61
					c1.68,0.38,3.38,0.6,5.11,0.53c1.25-0.05,2.48-0.25,3.7-0.52c0.79-0.17,1.32,0.14,1.49,0.87
					C219.15,38.54,218.82,39.19,218.09,39.39z M218.1,34.66c-0.1,0.16-0.21,0.26-0.42,0.31c-2.67,0.65-5.34,0.79-8.04,0.21
					c-0.45-0.1-0.76-0.26-1.01-0.67c-0.91-1.51-1.84-3-2.38-4.69c-0.04-0.14-0.09-0.27-0.12-0.41c-0.1-0.36-0.28-0.81-0.09-1.07
					c0.23-0.3,0.59,0.11,0.89,0.18c0.91,0.21,1.77,0.09,2.53-0.43c0.76-0.52,1.43-0.5,2.21-0.01c1.22,0.77,2.48,0.73,3.7-0.07
					c0.51-0.34,1.07-0.53,1.61-0.17c1.24,0.82,2.51,1.04,3.91,0.31c0.1,0.86-0.18,1.57-0.46,2.27
					C219.82,31.93,218.98,33.31,218.1,34.66z"/>
			</g>
			<g>
				<path class="st5" d="M213.54,85.61c-9.38,0-17.64-6.16-20.58-15.33c-0.14-0.45,0.1-0.93,0.55-1.07c0.45-0.14,0.93,0.1,1.07,0.55
					c2.7,8.46,10.32,14.14,18.95,14.14c11,0,19.95-9.25,19.95-20.62c0-5.39-2-10.5-5.64-14.36c-0.32-0.34-0.31-0.88,0.04-1.21
					c0.34-0.32,0.88-0.31,1.21,0.04c3.94,4.19,6.1,9.7,6.1,15.53C235.2,75.6,225.48,85.61,213.54,85.61z"/>
			</g>
		</g>
	</g>
	<g>
		<path class="st4" d="M205.92,102.29h-5.07v4.15h5.89v1.26h-7.43V96h7.35v1.26h-5.81v3.77h5.07V102.29z"/>
		<path class="st4" d="M216.91,97.26h-3.76v10.44h-1.54V97.26h-3.75V96h9.05V97.26z"/>
		<path class="st4" d="M227.64,107.7h-1.55v-5.41h-5.9v5.41h-1.54V96h1.54v5.03h5.9V96h1.55V107.7z"/>
	</g>
</g>
<g>
	<g>
		<ellipse class="st9" cx="476.14" cy="42.03" rx="34.21" ry="11.91"/>
		<path class="st10" d="M510.35,64.14v10.4c0,6.58-15.31,11.91-34.21,11.91c-18.89,0-34.21-5.33-34.21-11.91V42.28"/>
		<line class="st10" x1="510.35" y1="42.54" x2="510.35" y2="55.06"/>
		<ellipse class="st5" cx="476.14" cy="41.39" rx="31.77" ry="10.41"/>
		<g>
			<defs>
				<path id="SVGID_1_" d="M507.91,41.16c0,5.75-14.22,10.41-31.77,10.41c-17.55,0-31.77-4.66-31.77-10.41
					c0-4.7,0.15-20.36,0.15-20.36l63.43-6.37C507.95,14.43,507.91,39.48,507.91,41.16z"/>
			</defs>
			<clipPath id="SVGID_2_">
				<use xlink:href="#SVGID_1_"  style="overflow:visible;"/>
			</clipPath>
			<g class="st11">
				<path class="st12" d="M475.5,43.77v5.83c0,2.81-6.55,5.1-14.64,5.1s-14.64-2.28-14.64-5.1v-5.95"/>
				<g>
					<ellipse class="st12" cx="460.86" cy="43.69" rx="14.64" ry="5.1"/>
					<g>
						<path class="st5" d="M455.39,42.8c1.72,0.33,3.44,0.66,5.16,0.98c0.1,0.02,0.2,0.03,0.32,0.03c0.11,0,0.21-0.02,0.29-0.03
							c1.72-0.33,3.44-0.65,5.16-0.98c0.25-0.05,0.29-0.09,0.12-0.16c-1.73-0.73-3.46-1.45-5.2-2.18c-0.22-0.09-0.57-0.09-0.79,0
							c-1.74,0.73-3.47,1.45-5.2,2.18C455.1,42.71,455.14,42.75,455.39,42.8z M465.41,42.72c-1.37,0.26-2.73,0.52-4.08,0.78
							c-0.08-0.01-0.07-0.02-0.07-0.03c0-0.44,0-0.88,0-1.33c0-0.03-0.05-0.07,0.18-0.04c1.29,0.2,2.59,0.4,3.89,0.59
							C465.36,42.7,465.38,42.71,465.41,42.72z M461.26,40.89c0.02,0,0.04,0,0.06,0c1.19,0.5,2.39,1,3.58,1.5
							c-0.09,0.02-0.14,0-0.18-0.01c-1.08-0.16-2.16-0.33-3.24-0.49c-0.11-0.02-0.22-0.03-0.22-0.07
							C461.27,41.5,461.26,41.19,461.26,40.89z M460.4,40.88c0.11,0.01,0.06,0.03,0.06,0.04c0,0.28,0,0.57,0,0.85
							c0,0.03,0,0.06-0.15,0.09c-1.13,0.17-2.26,0.34-3.39,0.51c-0.02,0-0.05,0-0.12,0.01C458.01,41.88,459.2,41.38,460.4,40.88z
							 M460.44,42.08c0,0.48,0,0.94,0,1.42c-1.39-0.27-2.76-0.52-4.15-0.79C457.67,42.5,459.04,42.3,460.44,42.08z"/>
						<path class="st5" d="M466.78,42.92c-0.08,0.01-0.15,0.02-0.22,0.04c-1.83,0.36-3.66,0.72-5.48,1.09
							c-0.17,0.03-0.27,0.03-0.44,0c-1.83-0.37-3.67-0.73-5.5-1.09c-0.2-0.04-0.4-0.07-0.64-0.02c-0.22,0.05-0.16,0.1-0.05,0.15
							c1.99,1.05,3.98,2.1,5.97,3.15c0.09,0.05,0.19,0.09,0.45,0.09c0.24,0,0.34-0.04,0.42-0.09c1.99-1.05,3.98-2.1,5.97-3.15
							c0.05-0.02,0.08-0.05,0.1-0.07C467.37,42.93,467.05,42.88,466.78,42.92z M460.46,45.73c0,0-0.01,0.01-0.04,0.03
							c-1.5-0.79-2.98-1.57-4.48-2.36c0.15-0.01,0.21,0.02,0.28,0.03c1.35,0.27,2.7,0.53,4.05,0.8c0.11,0.02,0.19,0.04,0.19,0.08
							C460.45,44.78,460.46,45.26,460.46,45.73z M461.32,45.75c-0.02,0-0.04,0-0.05-0.01c0-0.48,0-0.95,0-1.43
							c0-0.03-0.01-0.05,0.1-0.07c1.47-0.29,2.93-0.58,4.44-0.86C464.3,44.17,462.81,44.96,461.32,45.75z"/>
					</g>
				</g>
			</g>
			<g class="st11">
				<path class="st12" d="M475.5,35.25v5.83c0,2.81-6.55,5.1-14.64,5.1s-14.64-2.28-14.64-5.1v-5.95"/>
				<g>
					<ellipse class="st12" cx="460.86" cy="35.18" rx="14.64" ry="5.1"/>
					<g>
						<path class="st5" d="M455.39,34.28c1.72,0.33,3.44,0.66,5.16,0.98c0.1,0.02,0.2,0.03,0.32,0.03c0.11,0,0.21-0.02,0.29-0.03
							c1.72-0.33,3.44-0.65,5.16-0.98c0.25-0.05,0.29-0.09,0.12-0.16c-1.73-0.73-3.46-1.45-5.2-2.18c-0.22-0.09-0.57-0.09-0.79,0
							c-1.74,0.73-3.47,1.45-5.2,2.18C455.1,34.19,455.14,34.23,455.39,34.28z M465.41,34.2c-1.37,0.26-2.73,0.52-4.08,0.78
							c-0.08-0.01-0.07-0.02-0.07-0.03c0-0.44,0-0.88,0-1.33c0-0.03-0.05-0.07,0.18-0.04c1.29,0.2,2.59,0.4,3.89,0.59
							C465.36,34.19,465.38,34.2,465.41,34.2z M461.26,32.37c0.02,0,0.04,0,0.06,0c1.19,0.5,2.39,1,3.58,1.5
							c-0.09,0.02-0.14,0-0.18-0.01c-1.08-0.16-2.16-0.33-3.24-0.49c-0.11-0.02-0.22-0.03-0.22-0.07
							C461.27,32.98,461.26,32.68,461.26,32.37z M460.4,32.37c0.11,0.01,0.06,0.03,0.06,0.04c0,0.28,0,0.57,0,0.85
							c0,0.03,0,0.06-0.15,0.09c-1.13,0.17-2.26,0.34-3.39,0.51c-0.02,0-0.05,0-0.12,0.01C458.01,33.37,459.2,32.87,460.4,32.37z
							 M460.44,33.57c0,0.48,0,0.94,0,1.42c-1.39-0.27-2.76-0.52-4.15-0.79C457.67,33.99,459.04,33.78,460.44,33.57z"/>
						<path class="st5" d="M466.78,34.4c-0.08,0.01-0.15,0.02-0.22,0.04c-1.83,0.36-3.66,0.72-5.48,1.09
							c-0.17,0.03-0.27,0.03-0.44,0c-1.83-0.37-3.67-0.73-5.5-1.09c-0.2-0.04-0.4-0.07-0.64-0.02c-0.22,0.05-0.16,0.1-0.05,0.15
							c1.99,1.05,3.98,2.1,5.97,3.15c0.09,0.05,0.19,0.09,0.45,0.09c0.24,0,0.34-0.04,0.42-0.09c1.99-1.05,3.98-2.1,5.97-3.15
							c0.05-0.02,0.08-0.05,0.1-0.07C467.37,34.42,467.05,34.37,466.78,34.4z M460.46,37.22c0,0-0.01,0.01-0.04,0.03
							c-1.5-0.79-2.98-1.57-4.48-2.36c0.15-0.01,0.21,0.02,0.28,0.03c1.35,0.27,2.7,0.53,4.05,0.8c0.11,0.02,0.19,0.04,0.19,0.08
							C460.45,36.27,460.46,36.74,460.46,37.22z M461.32,37.23c-0.02,0-0.04,0-0.05-0.01c0-0.48,0-0.95,0-1.43
							c0-0.03-0.01-0.05,0.1-0.07c1.47-0.29,2.93-0.58,4.44-0.86C464.3,35.66,462.81,36.45,461.32,37.23z"/>
					</g>
				</g>
			</g>
			<g class="st11">
				<path class="st12" d="M506.01,43.88v5.83c0,2.81-6.55,5.1-14.64,5.1s-14.64-2.28-14.64-5.1v-5.95"/>
				<g>
					<ellipse class="st12" cx="491.37" cy="43.8" rx="14.64" ry="5.1"/>
					<g>
						<g>
							<g>
								<polygon class="st5" points="495.18,41.25 491.36,43.46 487.53,41.27 483.79,41.29 483.8,44.29 486.73,44.28 486.72,42.22 
									490.31,44.27 492.43,44.26 495.35,42.56 495.36,45.42 498.94,45.41 498.92,41.23 								"/>
							</g>
						</g>
					</g>
				</g>
			</g>
			<g class="st11">
				<path class="st12" d="M506.01,35.48v5.83c0,2.81-6.55,5.1-14.64,5.1s-14.64-2.28-14.64-5.1v-5.95"/>
				<g>
					<ellipse class="st12" cx="491.37" cy="35.4" rx="14.64" ry="5.1"/>
					<g>
						<g>
							<g>
								<polygon class="st5" points="495.18,32.84 491.36,35.06 487.53,32.87 483.79,32.88 483.8,35.88 486.73,35.87 486.72,33.82 
									490.31,35.86 492.43,35.86 495.35,34.15 495.36,37.02 498.94,37.01 498.92,32.83 								"/>
							</g>
						</g>
					</g>
				</g>
			</g>
			<g class="st11">
				<path class="st12" d="M506.01,26.79v5.83c0,2.81-6.55,5.1-14.64,5.1s-14.64-2.28-14.64-5.1v-5.95"/>
				<g>
					<ellipse class="st12" cx="491.37" cy="26.71" rx="14.64" ry="5.1"/>
					<g>
						<g>
							<g>
								<polygon class="st5" points="495.18,24.16 491.36,26.37 487.53,24.18 483.79,24.2 483.8,27.2 486.73,27.19 486.72,25.13 
									490.31,27.18 492.43,27.17 495.35,25.47 495.36,28.33 498.94,28.32 498.92,24.14 								"/>
							</g>
						</g>
					</g>
				</g>
			</g>
		</g>
		<circle class="st12" cx="457.41" cy="74.57" r="16.09"/>
		<circle class="st12" cx="454.77" cy="75.14" r="16.57"/>
		<g>
			<path class="st5" d="M449.54,73.49c1.53,1.35,3.06,2.7,4.59,4.05c0.09,0.08,0.18,0.13,0.3,0.14c0.11-0.01,0.2-0.04,0.28-0.1
				c1.7-1.13,3.4-2.26,5.09-3.4c0.25-0.17,0.29-0.33,0.16-0.6c-1.44-2.86-2.87-5.72-4.32-8.58c-0.18-0.36-0.51-0.38-0.74-0.05
				c-1.81,2.64-3.62,5.28-5.43,7.92C449.29,73.13,449.31,73.29,449.54,73.49z M458.95,73.84c-1.35,0.9-2.69,1.79-4.02,2.68
				c-0.07-0.03-0.06-0.07-0.06-0.11c0.11-1.67,0.23-3.35,0.34-5.02c0.01-0.11-0.03-0.28,0.18-0.13c1.16,0.84,2.33,1.66,3.5,2.5
				C458.91,73.77,458.92,73.8,458.95,73.84z M455.53,66.63c0.02,0,0.04-0.01,0.05-0.01c0.99,1.97,1.98,3.94,2.97,5.91
				c-0.09,0.05-0.13-0.03-0.17-0.06c-0.97-0.69-1.94-1.38-2.91-2.07c-0.09-0.07-0.2-0.11-0.19-0.28
				C455.38,68.95,455.46,67.79,455.53,66.63z M454.72,66.56c0.1,0.05,0.05,0.12,0.04,0.17c-0.07,1.08-0.14,2.16-0.22,3.23
				c-0.01,0.13-0.02,0.24-0.17,0.32c-1.11,0.57-2.21,1.16-3.31,1.73c-0.02,0.01-0.05,0.01-0.12,0.03
				C452.22,70.2,453.47,68.38,454.72,66.56z M454.46,71.11c-0.12,1.81-0.24,3.57-0.36,5.39c-1.24-1.09-2.45-2.16-3.69-3.25
				C451.75,72.53,453.09,71.83,454.46,71.11z"/>
			<path class="st5" d="M460.18,74.68c-0.08,0.03-0.14,0.08-0.21,0.13c-1.81,1.26-3.61,2.51-5.42,3.77
				c-0.17,0.12-0.26,0.11-0.41-0.03c-1.62-1.5-3.25-2.99-4.88-4.48c-0.18-0.16-0.35-0.29-0.59-0.13c-0.22,0.16-0.17,0.36-0.09,0.57
				c1.6,4.11,3.19,8.21,4.79,12.32c0.07,0.19,0.16,0.36,0.4,0.37c0.23,0.01,0.33-0.14,0.42-0.31c2.14-3.85,4.27-7.71,6.4-11.57
				c0.05-0.09,0.08-0.18,0.11-0.25C460.73,74.77,460.45,74.56,460.18,74.68z M453.53,84.94c0,0.01-0.01,0.03-0.04,0.09
				c-1.2-3.1-2.39-6.16-3.59-9.24c0.15-0.02,0.19,0.08,0.25,0.14c1.2,1.09,2.39,2.19,3.59,3.29c0.1,0.09,0.17,0.17,0.16,0.33
				C453.78,81.34,453.66,83.14,453.53,84.94z M454.34,85.06c-0.02-0.01-0.03-0.02-0.05-0.02c0.12-1.8,0.24-3.61,0.37-5.41
				c0.01-0.1,0.01-0.19,0.11-0.26c1.45-1,2.89-2,4.38-2.98C457.54,79.27,455.94,82.16,454.34,85.06z"/>
		</g>
	</g>
	<g>
		<path class="st4" d="M427.77,107.43h5.54v1.26h-7.1V97h1.55V107.43z"/>
		<path class="st4" d="M434.85,97.69c0-0.24,0.07-0.44,0.22-0.61s0.37-0.25,0.66-0.25s0.51,0.08,0.66,0.25
			c0.15,0.17,0.22,0.37,0.22,0.61c0,0.24-0.08,0.44-0.22,0.6c-0.15,0.16-0.37,0.24-0.66,0.24s-0.51-0.08-0.66-0.24
			C434.92,98.14,434.85,97.93,434.85,97.69z M436.46,108.7h-1.49V100h1.49V108.7z"/>
		<path class="st4" d="M438.47,104.28c0-1.37,0.31-2.45,0.94-3.24c0.63-0.8,1.47-1.19,2.52-1.19c1.03,0,1.84,0.34,2.44,1.04
			l0.06-0.88h1.37v12.04h-1.49v-4.15c-0.6,0.64-1.4,0.96-2.39,0.96c-1.05,0-1.89-0.41-2.51-1.23c-0.62-0.82-0.94-1.9-0.94-3.25
			V104.28z M439.96,104.44c0,1,0.21,1.78,0.63,2.35c0.42,0.57,0.99,0.85,1.7,0.85c0.88,0,1.56-0.39,2.03-1.17v-4.26
			c-0.47-0.77-1.14-1.15-2.01-1.15c-0.72,0-1.29,0.29-1.71,0.86S439.96,103.33,439.96,104.44z"/>
		<path class="st4" d="M453.56,107.83c-0.58,0.68-1.43,1.02-2.55,1.02c-0.93,0-1.63-0.27-2.12-0.81c-0.48-0.54-0.73-1.34-0.74-2.39
			V100h1.49v5.62c0,1.32,0.54,1.98,1.61,1.98c1.14,0,1.89-0.42,2.27-1.27V100H455v8.7h-1.42L453.56,107.83z"/>
		<path class="st4" d="M457.27,97.69c0-0.24,0.07-0.44,0.22-0.61s0.37-0.25,0.66-0.25s0.51,0.08,0.66,0.25
			c0.15,0.17,0.22,0.37,0.22,0.61c0,0.24-0.08,0.44-0.22,0.6c-0.15,0.16-0.37,0.24-0.66,0.24s-0.51-0.08-0.66-0.24
			C457.34,98.14,457.27,97.93,457.27,97.69z M458.88,108.7h-1.49V100h1.49V108.7z"/>
		<path class="st4" d="M460.9,104.28c0-1.33,0.32-2.41,0.95-3.22c0.63-0.81,1.46-1.22,2.48-1.22c1.02,0,1.82,0.35,2.42,1.04v-4.53
			h1.49v12.34h-1.37l-0.07-0.93c-0.59,0.73-1.42,1.09-2.48,1.09c-1.01,0-1.83-0.41-2.46-1.24c-0.63-0.82-0.95-1.9-0.95-3.23V104.28z
			 M462.38,104.44c0,0.99,0.2,1.76,0.61,2.31c0.41,0.56,0.97,0.84,1.69,0.84c0.94,0,1.63-0.42,2.07-1.27v-3.99
			c-0.44-0.82-1.13-1.23-2.05-1.23c-0.73,0-1.3,0.28-1.7,0.84S462.38,103.34,462.38,104.44z"/>
		<path class="st4" d="M470.55,97.69c0-0.24,0.07-0.44,0.22-0.61s0.37-0.25,0.66-0.25c0.29,0,0.51,0.08,0.66,0.25
			c0.15,0.17,0.23,0.37,0.23,0.61c0,0.24-0.08,0.44-0.23,0.6c-0.15,0.16-0.37,0.24-0.66,0.24c-0.29,0-0.51-0.08-0.66-0.24
			C470.62,98.14,470.55,97.93,470.55,97.69z M472.15,108.7h-1.49V100h1.49V108.7z"/>
		<path class="st4" d="M476.55,97.89V100h1.62v1.15h-1.62v5.4c0,0.35,0.07,0.61,0.22,0.78c0.14,0.17,0.39,0.26,0.74,0.26
			c0.17,0,0.41-0.03,0.71-0.1v1.2c-0.39,0.11-0.77,0.16-1.14,0.16c-0.67,0-1.17-0.2-1.5-0.6c-0.34-0.4-0.51-0.97-0.51-1.71v-5.39
			h-1.58V100h1.58v-2.11H476.55z"/>
		<path class="st4" d="M482.75,106.52l2.03-6.52h1.59l-3.5,10.04c-0.54,1.45-1.4,2.17-2.58,2.17l-0.28-0.02l-0.55-0.1v-1.21
			l0.4,0.03c0.5,0,0.9-0.1,1.18-0.31c0.28-0.2,0.51-0.58,0.7-1.12l0.33-0.88l-3.1-8.6h1.62L482.75,106.52z"/>
		<path class="st4" d="M493.55,104.11v4.58H492V97h4.32c1.28,0,2.28,0.33,3.01,0.98c0.73,0.65,1.09,1.52,1.09,2.6
			c0,1.14-0.36,2.01-1.07,2.62s-1.73,0.92-3.05,0.92H493.55z M493.55,102.85h2.77c0.83,0,1.46-0.19,1.9-0.58s0.66-0.95,0.66-1.69
			c0-0.7-0.22-1.26-0.66-1.67s-1.04-0.64-1.81-0.65h-2.86V102.85z"/>
		<path class="st4" d="M501.65,104.27c0-0.85,0.17-1.62,0.5-2.3c0.33-0.68,0.8-1.21,1.4-1.58c0.6-0.37,1.28-0.55,2.05-0.55
			c1.18,0,2.14,0.41,2.87,1.23c0.73,0.82,1.1,1.91,1.1,3.27v0.1c0,0.85-0.16,1.61-0.49,2.28c-0.32,0.67-0.79,1.2-1.39,1.57
			s-1.29,0.56-2.08,0.56c-1.18,0-2.13-0.41-2.87-1.23c-0.73-0.82-1.1-1.91-1.1-3.25V104.27z M503.15,104.44
			c0,0.96,0.22,1.74,0.67,2.32s1.05,0.88,1.8,0.88c0.76,0,1.36-0.3,1.8-0.89c0.45-0.59,0.67-1.42,0.67-2.49
			c0-0.95-0.23-1.73-0.68-2.32s-1.05-0.89-1.8-0.89c-0.73,0-1.33,0.29-1.78,0.88S503.15,103.36,503.15,104.44z"/>
		<path class="st4" d="M511.04,104.27c0-0.85,0.17-1.62,0.5-2.3c0.33-0.68,0.8-1.21,1.4-1.58c0.6-0.37,1.28-0.55,2.04-0.55
			c1.18,0,2.14,0.41,2.87,1.23c0.73,0.82,1.1,1.91,1.1,3.27v0.1c0,0.85-0.16,1.61-0.49,2.28c-0.32,0.67-0.79,1.2-1.39,1.57
			s-1.3,0.56-2.08,0.56c-1.18,0-2.13-0.41-2.87-1.23c-0.73-0.82-1.1-1.91-1.1-3.25V104.27z M512.54,104.44
			c0,0.96,0.22,1.74,0.67,2.32s1.05,0.88,1.8,0.88c0.75,0,1.35-0.3,1.8-0.89c0.44-0.59,0.67-1.42,0.67-2.49
			c0-0.95-0.23-1.73-0.68-2.32c-0.45-0.59-1.05-0.89-1.8-0.89c-0.73,0-1.33,0.29-1.78,0.88
			C512.76,102.52,512.54,103.36,512.54,104.44z"/>
		<path class="st4" d="M522.44,108.7h-1.49V96.35h1.49V108.7z"/>
	</g>
</g>
<g>
	<g>
		<path class="st5" d="M276.78,301.63c-4.63,0-8.39-3.76-8.39-8.39c0-4.63,3.76-8.39,8.39-8.39s8.39,3.76,8.39,8.39
			C285.17,297.86,281.41,301.63,276.78,301.63z M276.78,285.39c-4.33,0-7.85,3.52-7.85,7.85c0,4.33,3.52,7.85,7.85,7.85
			s7.85-3.52,7.85-7.85C284.63,288.91,281.11,285.39,276.78,285.39z"/>
	</g>
	<g>
		<path class="st5" d="M278.35,288.68v0.97h-0.21c-0.89,0.02-1.59,0.28-2.12,0.79c-0.53,0.51-0.83,1.23-0.91,2.15
			c0.47-0.54,1.12-0.81,1.94-0.81c0.78,0,1.4,0.28,1.87,0.83c0.47,0.55,0.7,1.26,0.7,2.13c0,0.92-0.25,1.66-0.76,2.22
			c-0.5,0.55-1.18,0.83-2.03,0.83c-0.86,0-1.56-0.33-2.09-0.99c-0.53-0.66-0.8-1.51-0.8-2.55v-0.44c0-1.65,0.35-2.91,1.06-3.79
			c0.7-0.87,1.75-1.32,3.15-1.34H278.35z M276.86,292.73c-0.39,0-0.75,0.12-1.08,0.35c-0.33,0.23-0.56,0.53-0.68,0.88v0.42
			c0,0.74,0.17,1.34,0.5,1.79c0.33,0.45,0.75,0.68,1.25,0.68c0.51,0,0.92-0.19,1.21-0.57c0.29-0.38,0.44-0.87,0.44-1.49
			c0-0.62-0.15-1.11-0.45-1.49S277.35,292.73,276.86,292.73z"/>
	</g>
</g>
<g>
	<g>
		<path class="st5" d="M399.98,170.86c-4.63,0-8.39-3.76-8.39-8.39c0-4.63,3.76-8.39,8.39-8.39s8.39,3.76,8.39,8.39
			C408.37,167.1,404.61,170.86,399.98,170.86z M399.98,154.62c-4.33,0-7.85,3.52-7.85,7.85c0,4.33,3.52,7.85,7.85,7.85
			s7.85-3.52,7.85-7.85C407.83,158.14,404.31,154.62,399.98,154.62z"/>
	</g>
	<g>
		<path class="st5" d="M403.33,159.07l-3.72,8.33h-1.2l3.71-8.04h-4.86v-0.94h6.07V159.07z"/>
	</g>
</g>
<g>
	<path class="st5" d="M54.15,204.83c-0.02,0.75-0.62,1.35-1.36,1.35c-0.75,0-1.4-0.66-1.38-1.41c0.02-0.76,0.67-1.36,1.45-1.33
		C53.61,203.47,54.17,204.08,54.15,204.83z"/>
	<g>
		<path class="st5" d="M57.54,173.53c2.32,1.79,4.65,3.58,6.97,5.37c0.13,0.1,0.27,0.17,0.44,0.18c0.15-0.02,0.28-0.08,0.4-0.18
			c2.32-1.79,4.65-3.57,6.98-5.37c0.34-0.26,0.39-0.5,0.17-0.87c-2.34-3.96-4.68-7.92-7.02-11.88c-0.3-0.5-0.77-0.5-1.07,0
			c-2.35,3.96-4.69,7.92-7.02,11.88C57.16,173.04,57.2,173.27,57.54,173.53z M71.08,173.11c-1.84,1.42-3.68,2.83-5.51,4.24
			c-0.11-0.04-0.09-0.1-0.09-0.15c0-2.41,0-4.82,0-7.23c0-0.16-0.06-0.39,0.25-0.2c1.75,1.08,3.5,2.16,5.26,3.24
			C71.02,173.03,71.04,173.07,71.08,173.11z M65.48,163.1c0.03-0.01,0.05-0.02,0.08-0.03c1.61,2.73,3.22,5.45,4.84,8.18
			c-0.12,0.08-0.18-0.03-0.25-0.07c-1.46-0.89-2.92-1.79-4.38-2.69c-0.14-0.09-0.3-0.14-0.29-0.38
			C65.48,166.45,65.48,164.78,65.48,163.1z M64.31,163.09c0.14,0.06,0.08,0.17,0.08,0.25c0,1.55,0,3.11,0.01,4.66
			c0,0.19,0,0.35-0.21,0.47c-1.53,0.93-3.05,1.87-4.58,2.81c-0.03,0.02-0.07,0.02-0.16,0.05C61.08,168.55,62.69,165.82,64.31,163.09
			z M64.37,169.64c0,2.6,0,5.14,0,7.76c-1.88-1.45-3.72-2.86-5.6-4.31C60.63,171.94,62.48,170.8,64.37,169.64z"/>
		<path class="st5" d="M72.93,174.2c-0.11,0.05-0.2,0.13-0.29,0.21c-2.47,1.98-4.94,3.95-7.4,5.93c-0.23,0.18-0.36,0.18-0.59,0
			c-2.47-1.99-4.96-3.97-7.43-5.96c-0.27-0.21-0.54-0.39-0.86-0.12c-0.3,0.25-0.21,0.53-0.07,0.83c2.69,5.73,5.38,11.47,8.06,17.21
			c0.12,0.26,0.26,0.5,0.6,0.5c0.33-0.01,0.45-0.24,0.57-0.49c2.69-5.74,5.38-11.47,8.06-17.21c0.06-0.13,0.1-0.27,0.14-0.37
			C73.73,174.28,73.3,174.01,72.93,174.2z M64.39,189.56c0,0.02-0.01,0.04-0.05,0.14c-2.03-4.33-4.03-8.6-6.05-12.9
			c0.21-0.04,0.28,0.1,0.38,0.17c1.82,1.45,3.64,2.91,5.47,4.37c0.15,0.12,0.26,0.23,0.26,0.45
			C64.39,184.38,64.39,186.97,64.39,189.56z M65.55,189.65c-0.02-0.01-0.05-0.02-0.07-0.03c0-2.6,0-5.2,0-7.8
			c0-0.15-0.01-0.28,0.13-0.39c1.98-1.57,3.95-3.16,5.99-4.7C69.59,181.04,67.57,185.35,65.55,189.65z"/>
	</g>
	<path class="st5" d="M53.95,149.54c-2.87,2.26-5.56,4.72-7.94,7.5c-5.93,6.96-9.8,14.73-9.37,24.15h0c0,0.66,0.54,1.2,1.21,1.2
		c0.67,0,1.21-0.54,1.21-1.21c0-0.01,0-0.02,0-0.03c0,0,0,0,0,0c-0.01-0.24-0.03-0.49-0.04-0.73c-0.16-4.88,1.09-9.43,3.32-13.74
		c2.99-5.79,7.31-10.47,12.28-14.6c0.85-0.71,1.61-1.37,2.74-0.54c0.18,0.13,0.46,0.14,0.69,0.19c3.14,0.74,6.32,0.81,9.51,0.54
		c1.92-0.16,3.85-0.37,5.52-1.47c0.33-0.22,0.49,0.03,0.68,0.19c1.08,0.88,2.16,1.77,3.23,2.65c0.74,0.61,1.41,0.64,1.91,0.07
		c0.5-0.58,0.41-1.26-0.33-1.88c-1.12-0.95-2.26-1.89-3.42-2.8c-0.41-0.32-0.63-0.6-0.56-1.18c0.14-1.2-0.23-2.3-1.08-3.16
		c-0.36-0.37-0.32-0.6-0.08-0.99c1.32-2.05,2.56-4.14,3.28-6.49c0.32-1.06,0.54-2.13,0.27-3.24c-0.41-1.7-1.67-2.36-3.27-1.67
		c-0.2,0.08-0.39,0.19-0.58,0.27c-0.56,0.22-1.1,0.21-1.62-0.12c-0.66-0.42-1.37-0.7-2.1-0.98c-0.48,0-0.97,0-1.45,0
		c-0.74,0.1-1.43,0.33-2.08,0.72c-0.58,0.35-1.22,0.45-1.81,0.05c-0.68-0.46-1.44-0.65-2.22-0.77c-0.48,0-0.97,0-1.45,0
		c-0.51,0.23-1.06,0.38-1.51,0.69c-0.92,0.64-1.78,0.62-2.78,0.13c-1.45-0.72-2.61-0.16-3.14,1.39c-0.31,0.89-0.24,1.8-0.04,2.7
		c0.57,2.55,1.87,4.76,3.19,6.97c0.12,0.2,0.49,0.4,0.05,0.72c-0.37,0.26-0.52,0.03-0.73-0.17c-1.24-1.17-2.68-1.94-4.37-2.22
		c-0.77-0.13-1.55-0.11-2.33-0.04c-2.07,0.19-3.99-0.22-5.76-1.32c-0.76-0.47-1.43-0.36-1.83,0.24c-0.42,0.64-0.2,1.31,0.58,1.81
		c0.18,0.12,0.36,0.23,0.55,0.33c2.01,1.09,4.15,1.58,6.42,1.34c2.18-0.23,4.02,0.37,5.49,2.03c0.11,0.13,0.33,0.24,0.16,0.49
		c-1.65,0.02-3.3,0.23-4.9,0.69c-2.73,0.78-5.08,2.12-6.61,4.62c-0.41,0.68-0.25,1.39,0.34,1.75c0.58,0.35,1.23,0.2,1.67-0.45
		c2.31-3.42,5.84-3.97,9.56-4.14C54.3,149.26,54.13,149.41,53.95,149.54z M71.01,149.21c-2.13,0.59-4.3,0.83-7.03,0.84
		c-1.6,0.02-3.69-0.26-5.76-0.75c-1.26-0.3-1.8-1.44-1.26-2.59c0.33-0.7,0.89-0.99,1.71-0.8c2.2,0.49,4.42,0.79,6.68,0.7
		c1.64-0.07,3.24-0.33,4.84-0.67c1.03-0.22,1.72,0.19,1.94,1.13C72.39,148.09,71.97,148.94,71.01,149.21z M55.54,136.69
		c-0.06-0.18-0.11-0.36-0.16-0.54c-0.13-0.47-0.37-1.06-0.11-1.39c0.3-0.4,0.76,0.14,1.16,0.24c1.19,0.28,2.31,0.12,3.3-0.56
		c0.99-0.67,1.88-0.65,2.89-0.01c1.6,1.01,3.24,0.95,4.83-0.09c0.67-0.44,1.4-0.69,2.11-0.22c1.62,1.08,3.28,1.36,5.11,0.4
		c0.12,1.13-0.24,2.06-0.6,2.97c-0.79,1.97-1.88,3.78-3.04,5.54c-0.13,0.2-0.27,0.34-0.54,0.4c-3.49,0.85-6.98,1.03-10.51,0.27
		c-0.58-0.13-1-0.34-1.32-0.87C57.46,140.85,56.24,138.9,55.54,136.69z"/>
	<g>
		<path class="st13" d="M30.04,206.11c-1.22,1.21-2.42,2.44-3.65,3.65c-0.58,0.57-1.19,1.12-1.86,1.75
			c1.18,1.16,2.36,2.31,3.53,3.46h13.16c-2.96-2.96-5.91-5.92-8.87-8.87C31.55,205.29,30.85,205.3,30.04,206.11z"/>
		<path class="st5" d="M91.12,189.84c0.13-0.35,0.29-0.82,0.35-0.97c1.81-4.29,2.19-8.75,1.5-13.32c-0.8-5.29-2.96-10.02-5.98-14.39
			c-1.21-1.74-2.53-3.4-3.97-4.95c-0.56-0.6-1.25-0.68-1.78-0.23c-0.55,0.46-0.55,1.2-0.01,1.85c0.14,0.16,0.29,0.31,0.43,0.48
			c4.78,5.44,8.29,11.51,9.07,18.86c0.4,3.78-0.04,7.41-1.5,10.8c-2.09-1.24-4.9-1.05-6.76,0.85c-2.63,2.69-5.25,5.39-7.86,8.1
			c-0.17,0.17-0.23,0.45-0.37,0.72c-1.51-1.75-3.16-2.27-5.08-2.26c-4.7,0.03-9.41,0.01-14.11,0c-0.38,0-0.78-0.06-1.14-0.19
			c-3.17-1.22-6.88-1.51-10.43-0.78c-1.38-1.9-2.48-4.26-3.23-7.06c-0.17-0.64-0.83-1.01-1.47-0.84c-0.64,0.17-1.01,0.83-0.84,1.47
			c0.74,2.74,1.8,5.11,3.12,7.11c-3.57,1.26-6.8,3.65-8.9,7.32c-0.1,0.18-0.42,0.34-0.63,0.33c-1.4-0.06-2.53,0.46-3.51,1.45
			c-1.98,2.01-3.98,4-5.97,6c-1.01,1.02-1.01,1.63,0.02,2.67c1.39,1.41,2.79,2.81,4.18,4.21v0.01h0.01h3.95h13.12h3.64h0
			c1.24-1.3,2.5-2.44,4.54-2.41c5.94,0.08,11.88,0.06,17.82,0.02c3.88-0.03,7.13-1.47,9.61-4.52c1.29-1.58,2.62-3.13,3.93-4.7
			c2.55-3.04,5.1-6.08,7.63-9.13c1.38-1.66,1.7-4.46,0.73-6.26C91.21,189.99,91.16,189.92,91.12,189.84z M28.07,214.97
			c-1.17-1.15-2.35-2.3-3.53-3.46c0.67-0.63,1.28-1.18,1.86-1.75c1.22-1.21,2.43-2.44,3.65-3.65c0.81-0.81,1.51-0.81,2.31-0.01
			c2.96,2.95,5.92,5.91,8.87,8.87H28.07z M88.42,194.51c-2.59,3.12-5.21,6.23-7.81,9.34c-1.24,1.48-2.5,2.93-3.7,4.44
			c-2,2.52-4.65,3.63-7.81,3.63c-5.71,0.01-11.42,0.06-17.13-0.02c-2.5-0.03-4.58,0.7-6.28,2.54c-0.17,0.18-0.36,0.34-0.57,0.53
			c-2.53-2.53-5.03-5.03-7.52-7.53c-0.94-0.94-1.87-1.9-2.83-2.81c-0.35-0.33-0.39-0.57-0.14-0.98c2.14-3.54,5.25-5.69,9.27-6.52
			c3.19-0.66,6.33-0.48,9.38,0.77c0.41,0.17,0.89,0.22,1.34,0.22c4.86,0.02,9.73,0.01,14.59,0.02c0.46,0,0.93,0.02,1.36,0.14
			c1.2,0.33,2.04,1.55,1.96,2.76c-0.09,1.33-1.05,2.39-2.35,2.57c-0.29,0.04-0.59,0.05-0.89,0.05c-3.37,0-6.74,0-10.11,0
			c-0.25,0-0.51,0-0.76,0.02c-0.74,0.08-1.24,0.6-1.26,1.3c-0.02,0.7,0.44,1.27,1.16,1.39c0.27,0.05,0.55,0.04,0.82,0.05
			c3.35,0,6.7,0,10.05,0c3.81,0,6.01-2.17,6.1-5.98c0-0.2,0.13-0.44,0.27-0.58c2.93-3.03,5.87-6.06,8.82-9.08
			c1.08-1.11,2.74-1.15,3.85-0.15C89.35,191.63,89.45,193.27,88.42,194.51z"/>
	</g>
</g>
</svg>
