<?xml version="1.0" encoding="utf-8"?>
<!-- Generator: Adobe Illustrator 22.1.0, SVG Export Plug-In . SVG Version: 6.00 Build 0)  -->
<svg version="1.1" id="Calque_1" xmlns="http://www.w3.org/2000/svg" xmlns:xlink="http://www.w3.org/1999/xlink" x="0px" y="0px"
	 viewBox="0 0 724 724" style="enable-background:new 0 0 724 724;" xml:space="preserve">
<style type="text/css">
	.st0{fill:#FFFFFF;}
</style>
<title>E47F8FEE-ADAD-4D11-8C21-586670C924B4</title>
<desc>Created with sketchtool.</desc>
<g>
	<polygon class="st0" points="429.7,242.4 370.7,410 311.3,242.4 249.1,242.4 249.1,473.5 296.7,473.5 296.7,410.3 292,301.5 
		354.2,473.5 386.9,473.5 449.2,301.3 444.5,410.3 444.5,473.5 492.2,473.5 492.2,242.4 	"/>
	<rect x="444.5" y="473.5" class="st0" width="47.7" height="79"/>
</g>
<path class="st0" d="M695.6,221.1C677.3,178,651.2,139.3,618,106s-72-59.3-115.1-77.6C458.3,9.6,410.9,0,362,0s-96.3,9.6-140.9,28.4
	C178,46.7,139.3,72.8,106,106s-59.3,72-77.6,115.1C9.6,265.7,0,313.1,0,362c0,48.9,9.6,96.3,28.4,140.9C46.7,546,72.8,584.7,106,618
	s72,59.3,115.1,77.6c44.6,18.9,92,28.4,140.9,28.4s96.3-9.6,140.9-28.4C546,677.3,584.7,651.2,618,618s59.3-72,77.6-115.1
	c18.9-44.6,28.4-92,28.4-140.9C724,313.1,714.4,265.7,695.6,221.1z M694.6,502.5c-18.2,43-44.2,81.6-77.4,114.7
	c-33.2,33.2-71.8,59.2-114.7,77.4C458,713.5,410.7,723,362,723s-96-9.5-140.5-28.4c-43-18.2-81.6-44.2-114.7-77.4
	c-33.2-33.2-59.2-71.8-77.4-114.7C10.5,458,1,410.7,1,362c0-48.7,9.5-96,28.4-140.5c18.2-43,44.2-81.6,77.4-114.7
	s71.8-59.2,114.7-77.4C266,10.5,313.3,1,362,1s96,9.5,140.5,28.4c43,18.2,81.6,44.2,114.7,77.4c33.2,33.2,59.2,71.8,77.4,114.7
	C713.5,266,723,313.3,723,362C723,410.7,713.5,458,694.6,502.5z"/>
</svg>
