<svg fill="none" height="238" width="257" xmlns="http://www.w3.org/2000/svg"><g stroke-linecap="round" stroke-linejoin="round"><path d="m243.3 1-99.5 73.9 18.4-43.6z" fill="#e2761b" stroke="#e2761b"/><g fill="#e4761b" stroke="#e4761b"><path d="m13.6 1 98.7 74.6-17.5-44.3zM207.5 172.3 181 212.9l56.7 15.6 16.3-55.3zM3.1 173.2l16.2 55.3L76 212.9l-26.5-40.6z"/><path d="M72.8 103.7 57 127.6l56.3 2.5-2-60.5zM184.1 103.7l-39-34.8-1.3 61.2 56.2-2.5zM76 212.9l33.8-16.5-29.2-22.8zM147.1 196.4l33.9 16.5-4.7-39.3z"/></g><path d="m181 212.9-33.9-16.5 2.7 22.1-.3 9.3zM76 212.9l31.5 14.9-.2-9.3 2.5-22.1z" fill="#d7c1b3" stroke="#d7c1b3"/><path d="m108 159-28.2-8.3 19.9-9.1zM148.9 159l8.3-17.4 20 9.1z" fill="#233447" stroke="#233447"/><path d="m76 212.9 4.8-40.6-31.3.9zM176.2 172.3l4.8 40.6 26.5-39.7zM200 127.6l-56.2 2.5L149 159l8.3-17.4 20 9.1zM79.8 150.7l20-9.1L108 159l5.3-28.9-56.3-2.5z" fill="#cd6116" stroke="#cd6116"/><path d="m57 127.6 23.6 46-.8-22.9zM177.3 150.7l-1 22.9 23.7-46zM113.3 130.1 108 159l6.6 34.1 1.5-44.9zM143.8 130.1l-2.7 18 1.2 45L149 159z" fill="#e4751f" stroke="#e4751f"/><path d="m149 159-6.7 34.1 4.8 3.3 29.2-22.8 1-22.9zM79.8 150.7l.8 22.9 29.2 22.8 4.8-3.3L108 159z" fill="#f6851b" stroke="#f6851b"/><path d="m149.5 227.8.3-9.3-2.5-2.2h-37.7l-2.3 2.2.2 9.3L76 212.9l11 9 22.3 15.5h38.3l22.4-15.5 11-9z" fill="#c0ad9e" stroke="#c0ad9e"/><path d="m147.1 196.4-4.8-3.3h-27.7l-4.8 3.3-2.5 22.1 2.3-2.2h37.7l2.5 2.2z" fill="#161616" stroke="#161616"/><path d="m247.5 79.7 8.5-40.8L243.3 1l-96.2 71.4 37 31.3 52.3 15.3 11.6-13.5-5-3.6 8-7.3-6.2-4.8 8-6.1zM1 38.9l8.5 40.8-5.4 4 8 6.1L6 94.6l8 7.3-5 3.6L20.5 119l52.3-15.3 37-31.3L13.6 1z" fill="#763d16" stroke="#763d16"/><path d="m236.4 119-52.3-15.3 15.9 23.9-23.7 46 31.2-.4H254zM72.8 103.7 20.5 119 3.1 173.2h46.4l31.1.4-23.6-46zM143.8 130.1l3.3-57.7 15.2-41.1H94.8l15 41.1 3.5 57.7 1.2 18.2.1 44.8h27.7l.2-44.8z" fill="#f6851b" stroke="#f6851b"/></g></svg>